<svg xmlns="http://www.w3.org/2000/svg" viewBox="0 0 45 40"><defs><pattern id="a" data-name="新規パターンスウォッチ 15" width="45.1" height="41.14" patternTransform="matrix(.99 0 0 .97 -150.8 70.45)" patternUnits="userSpaceOnUse"><path fill="none" d="M0 0h45.1v41.14H0z"/><path d="M7.77 34.36l3.32 3.76a.62.62 0 0 0 1.07-.28l.85-4.1a.62.62 0 0 0-.65-.74l-4.17.33a.62.62 0 0 0-.42 1.03zm30.6-18.26l-2 4a.63.63 0 0 0 .69.83l4-.55a.52.52 0 0 0 .39-.8l-2-3.5a.63.63 0 0 0-1.08.02z" fill="#f8f6dc"/></pattern></defs><path fill="#fff" d="M0 0h45v40H0z"/><path fill="url(#a)" d="M0 .01h45v40H0z"/></svg>