<svg xmlns="http://www.w3.org/2000/svg" viewBox="0 0 50 50"><defs><style>.cls-1{fill:#f29c97}</style></defs><g id="デザイン"><path class="cls-1" d="M35.84 5.8h-.25c-4.65.08-7.41 2.84-9.25 5.55a1.74 1.74 0 0 1-1.34.84 1.74 1.74 0 0 1-1.34-.84c-1.85-2.71-4.6-5.46-9.25-5.55h-.25c-6 0-11.4 4.46-11.4 14.13S11.07 36.47 16.2 40a45.51 45.51 0 0 0 7.6 4 5.63 5.63 0 0 0 1.2.24 5.63 5.63 0 0 0 1.2-.24 45.51 45.51 0 0 0 7.6-4c5.13-3.49 13.44-10.35 13.44-20S41.85 5.8 35.84 5.8zm-3.57 31.93a42.79 42.79 0 0 1-7 3.68l-.3.07-.3-.07a42.49 42.49 0 0 1-7-3.68C9.59 32.18 5.46 26.2 5.46 19.94c0-3.82 1-6.89 2.75-8.88a7.82 7.82 0 0 1 5.94-2.54h.2c2.87.05 5 1.4 7 4.34a4.44 4.44 0 0 0 3.52 2h.14a4.43 4.43 0 0 0 3.51-2c2-3 4.2-4.31 7.07-4.36h.2c5.36 0 8.69 4.38 8.69 11.42.06 6.28-4.07 12.26-12.21 17.81z"/><path class="cls-1" d="M12.84 22.81a11.56 11.56 0 0 1-.31-1.89 5.64 5.64 0 0 1 .06-1.44 1.06 1.06 0 0 0-2.08-.39 7.78 7.78 0 0 0-.09 2 13.67 13.67 0 0 0 .37 2.24 9.86 9.86 0 0 0 2 4 1.06 1.06 0 0 0 1.63-1.35 7.74 7.74 0 0 1-1.58-3.17z"/><circle class="cls-1" cx="13.16" cy="14.7" r="1.35"/></g></svg>