<svg xmlns="http://www.w3.org/2000/svg" viewBox="0 0 50 50"><path d="M42.5 17.89L28.66 7a6.13 6.13 0 0 0-7.33 0L7.5 17.89a4.19 4.19 0 0 0-1.7 3.28v18.54a4.15 4.15 0 0 0 1.57 3.18 5.91 5.91 0 0 0 3.79 1.32h27.68a5.91 5.91 0 0 0 3.79-1.32 4.16 4.16 0 0 0 1.57-3.18V21.17a4.19 4.19 0 0 0-1.7-3.28zm-2.57 21.82a.84.84 0 0 1-.32.65 1.19 1.19 0 0 1-.77.27h-9.1v-7.96h-9.48v7.95h-9.1a1.19 1.19 0 0 1-.77-.27.83.83 0 0 1-.32-.65V21.17a.85.85 0 0 1 .34-.67L24.25 9.63a1.25 1.25 0 0 1 1.49 0L39.58 20.5a.85.85 0 0 1 .35.67z" fill="#97c2ad"/></svg>