<svg xmlns="http://www.w3.org/2000/svg" viewBox="0 0 50 50"><defs><style>.cls-1{fill:#f7b520}</style></defs><g id="デザイン"><path class="cls-1" d="M17 13.57a2.17 2.17 0 0 0 2.17-2.17V8a2.17 2.17 0 0 0-4.34 0v3.42A2.17 2.17 0 0 0 17 13.57zm16 0a2.17 2.17 0 0 0 2.17-2.17V8a2.17 2.17 0 0 0-4.34 0v3.42A2.17 2.17 0 0 0 33 13.57z"/><path class="cls-1" d="M38.44 8.9h-1.35v2.49a4.08 4.08 0 1 1-8.16 0V8.9h-7.86v2.49a4.08 4.08 0 1 1-8.16 0V8.9h-1.35a5.23 5.23 0 0 0-5.23 5.23V39a5.23 5.23 0 0 0 5.23 5.23h26.88A5.23 5.23 0 0 0 43.67 39V14.13a5.23 5.23 0 0 0-5.23-5.23zM39.55 38a2.43 2.43 0 0 1-2.42 2.42H12.87A2.43 2.43 0 0 1 10.45 38V18.62h29.1z"/></g></svg>