<svg xmlns="http://www.w3.org/2000/svg" viewBox="0 0 130 130"><defs><style>.cls-2{fill:#595858}</style></defs><g id="デザイン"><text transform="translate(1.99 13.01)" fill="#595858" font-size="12.99" font-family="TsukuARdGothic-Bold-83pv-RKSJ-H,Tsukushi A Round Gothic" font-weight="700">企業主導型保育所</text><circle class="cls-2" cx="38.16" cy="62.9" r="3.75"/><circle class="cls-2" cx="65.42" cy="62.9" r="3.75"/><ellipse class="cls-2" cx="52.53" cy="69.75" rx="4.48" ry="2.57"/><path class="cls-2" d="M39.63 74.44s1.87 9.48 13.1 9.41 13.1-9.41 13.1-9.41S63.11 75.76 54 76.2s-14.37-1.76-14.37-1.76zm-2.1 31.39l-.82 1.24a.37.37 0 0 0 .13.53l.29.16c1.38.74 2.38 1.28 3.2 1.82a.37.37 0 0 0 .2.06h.09a.37.37 0 0 0 .24-.18l.7-1.29a.37.37 0 0 0-.13-.5c-1.66-1-2.75-1.61-3.43-2a.37.37 0 0 0-.47.16z"/><path class="cls-2" d="M114.14 113.35c-2.19 0-4.42-.08-6.47.8a11.62 11.62 0 0 0-4.83 4.83c-2.39 4-4.24 10.63-10.13 8l.94-.94a.37.37 0 0 0 0-.49 109.4 109.4 0 0 0-8.11-9 70.85 70.85 0 0 0 8.51-7.88v-.12a.16.16 0 0 0 .07-.08c.69-2.49-2-3.28-3.91-2.84a12 12 0 0 0-6.21 3.76c-2 2.23-3.77 4.7-5.84 6.9-1.45 1.54-3.52 3.45-5.67 3.21a13.09 13.09 0 0 0-2.64-6.19.35.35 0 0 0-.29-.12c-1.84-.72-3.63.41-5 1.6a6.19 6.19 0 0 0-1.68 2.21c-.52 1.23-.44 2.52-1.06 3.69v-.72a.37.37 0 0 0-.47-.35 27.73 27.73 0 0 1-3.1.71 23.87 23.87 0 0 1-.25-3.4 25.71 25.71 0 0 1 .42-4.86.37.37 0 0 0-.3-.44l-1.41-.24h-.12a1.86 1.86 0 0 0-1 .21c-2.37 1.09-3.9 3.63-5 5.87a28.13 28.13 0 0 1-5.1 8c-2.23 2.28-5.84 3.31-8.75 1.75 3.15-1.24 5-3.41 5-6 0-2.25-1.42-4.88-5.42-4.88h-1v-5.87c0-.21-.17-.37-.37-.2h-1.52v-.17a.18.18 0 0 0-.15 0 .32.32 0 0 0-.09.08 33.86 33.86 0 0 0-3.54 3.82c-1.06 1.2-1.36 2.86-2.12 4.23s-4.25 5.84-5.87 4.23l.28-1.07a.37.37 0 0 0-.22-.44l-.84-.34-1.2-.48a17.52 17.52 0 0 0 .38-2.19.37.37 0 0 0-.3-.42l-1.34-.24a.38.38 0 0 0-.29.07.37.37 0 0 0-.14.26 11 11 0 0 1-.31 1.77A27 27 0 0 0 9.31 118a71 71 0 0 0 1.09-9.15.37.37 0 0 0-.1-.28l-.27-.26H6.54a1.18 1.18 0 0 1 0 .13C.37 107-.69 100.65 2.28 95.67c2.43-4.08 7.66-5.55 12.24-5.67a1.18 1.18 0 0 0 1.2 1h6.51l.11.9c.19 1.64 2.78 1.66 2.59 0l-.1-.9c19 .05 38 .22 57 .27-.05.62-.12 1.23-.16 1.85-.13 1.66 2.46 1.65 2.59 0 0-.62.11-1.23.16-1.84h5a1.29 1.29 0 0 0 0-2.59h-4.79a210 210 0 0 1 4.64-26.93 17.59 17.59 0 0 0 5 .68 1.29 1.29 0 0 0 0-2.59 15.06 15.06 0 0 1-4.37-.62c.27-1.09.53-2.18.81-3.27a1.29 1.29 0 0 0-2.49-.69c-.27 1-.52 2.08-.77 3.12-4.67-1.9-9.22-5.25-12.8-7.71-7.37-5.08-16-12-19.33-20.54-.6-1.53-3.1-.87-2.49.69C56.19 39.49 64 46 71.21 51.41c4.21 3.15 9.85 7.35 15.59 9.55A214.41 214.41 0 0 0 82 88.69c-19.17 0-38.35-.22-57.52-.27C23.3 78.16 21.8 68 18.5 58.21a71.31 71.31 0 0 0 12.83-5.55c6.76-3.52 14.62-8.49 17.84-15.72.67-1.51-1.55-2.83-2.23-1.31C44 42.2 37.19 46.41 31.18 49.8a61.7 61.7 0 0 1-13.53 6c-.32-.85-.64-1.7-1-2.54-.62-1.52-3.13-.86-2.49.69q.5 1.21.95 2.43a23.06 23.06 0 0 1-3.18.37c-1.66.07-1.67 2.65 0 2.59a25.25 25.25 0 0 0 4-.51c3.24 9.58 4.75 19.52 6 29.58h-6.21a1.18 1.18 0 0 0-1.2 1C9.11 89.58 3.6 91.6 1.05 96.7c-2.43 4.87-.56 10.3 4.41 12 0 0 0 .05-.16.09v1.45c.12.21.29.37.49 0h2.3a49.84 49.84 0 0 1-1 7.73c-1.89.3-3.81 1.56-3.81 3.74a2.3 2.3 0 0 0 2.37 2.53 2.58 2.58 0 0 0 2.52-1.9 9 9 0 0 0 .67-2.31 21.48 21.48 0 0 1 8.28 1.43 7.8 7.8 0 0 1-1.66 2.94.37.37 0 0 0 .15.59l1.36.52h.13a.37.37 0 0 0 .28-.13 9.17 9.17 0 0 0 1.75-3.18l.28.13c.55.25 1.12.5 1.62.75a.37.37 0 0 0 .53-.24c1.4 1.14 3.68-1.2 4.66-2.28a9 9 0 0 0 2-3 10.53 10.53 0 0 1 2.87-4.56c.83-.77 2.19-2.14 2.19-2.14v7.47s-.18.22-.09.29a.37.37 0 0 0 .32.07 12.34 12.34 0 0 1 2.73-.27c3 0 3.27 2.05 3.27 2.67 0 2-1.46 3.45-4.33 4.52a.37.37 0 0 0-.15.6l.87 1h.07c3.8 2.52 8.13.35 10.75-2.72a29.13 29.13 0 0 0 4.1-6.89 13.5 13.5 0 0 1 2.89-4.29 5.73 5.73 0 0 1 2.46-1.61 26.1 26.1 0 0 0-.46 5.2 19.76 19.76 0 0 0 .65 5.48.37.37 0 0 0 .36.27h.07l.54-.11c1.45-.29 3.24-.64 4.19-1a.37.37 0 0 0 .24-.33c1.06-1.49.87-3.4 1.77-5S67 113 69 113.41l-.89.45a.37.37 0 0 0-.13.56 14.22 14.22 0 0 1 2.35 5.76.37.37 0 0 0 .37.3h.11l1.46-.47a.36.36 0 0 0 .17-.13c3 .38 5.9-3.11 7.65-5.17s3.14-4 4.91-5.81a9.26 9.26 0 0 1 2.68-1.94c1.5-.73 6.86-2.5 6.24 1L93 107a.4.4 0 0 0-.28-.12.37.37 0 0 0-.27.13 77.29 77.29 0 0 1-9.66 8.99.37.37 0 0 0 0 .55c2.91 3 6 6.38 9.29 10.46a.37.37 0 0 0 .26.13c4.38 2.12 7-.57 8.94-4.34a26.63 26.63 0 0 1 4.27-6.68c2.38-2.45 5.42-2.44 8.61-2.44a.19.19 0 0 0-.02-.33zm1.76-.26a.47.47 0 0 0 0 .93.47.47 0 0 0 0-.93zm2.24-.53a.47.47 0 0 0 0 .93.47.47 0 0 0 0-.93zm2.34-.56a.47.47 0 0 0 0 .93.47.47 0 0 0 0-.93zm9.41-1.77a4.17 4.17 0 0 1-.67-.54 5.19 5.19 0 0 1-.13-1 .23.23 0 0 0-.43-.12c-.22.31-.46.8-.94.71-.23 0-.45-.11-.69-.14s-.3.27-.16.4.57.37.36.73-.28.45-.39.69a.24.24 0 0 0 .26.34c.33-.1.61-.32.92-.45a5.88 5.88 0 0 0 .45 1c.13.17.39 0 .4-.16a4.25 4.25 0 0 1 .08-.79c.05-.25.63-.2.82-.22a.23.23 0 0 0 .12-.45zm-4.68.7c-.26-.12-.57-.15-.82-.29s-.18-.6-.34-.88a.23.23 0 0 0-.43.06c-.06.24-.09.49-.15.73s-.57.27-.84.32-.19.37 0 .45.48.11.45.33a4.77 4.77 0 0 1-.15.54.23.23 0 0 0 .39.23c.18-.15.37-.29.55-.44a1.85 1.85 0 0 0 .49.52.24.24 0 0 0 .34-.14.66.66 0 0 0-.06-.56c-.2-.43.26-.38.51-.44a.23.23 0 0 0 .06-.43z"/></g></svg>