<svg id="背景" xmlns="http://www.w3.org/2000/svg" viewBox="0 0 374 44"><defs><style>.cls-13{fill:#fff471}.cls-14{fill:#2e2624}</style><linearGradient id="linear-gradient" x1="212.51" y1="25.49" x2="231.16" y2="25.49" gradientUnits="userSpaceOnUse"><stop offset="0" stop-color="#97c2ad"/><stop offset=".6" stop-color="#d3ba55"/><stop offset="1" stop-color="#f7b520"/></linearGradient><linearGradient id="linear-gradient-2" x1="234.47" y1="30.3" x2="266.4" y2="30.3" gradientUnits="userSpaceOnUse"><stop offset="0" stop-color="#f7b520"/><stop offset=".21" stop-color="#e1b743"/><stop offset=".68" stop-color="#abbc9a"/><stop offset="1" stop-color="#83c0da"/></linearGradient><linearGradient id="linear-gradient-3" x1="285.87" y1="19.6" x2="320.74" y2="19.6" gradientUnits="userSpaceOnUse"><stop offset="0" stop-color="#e08b72"/><stop offset=".13" stop-color="#cb877d"/><stop offset=".34" stop-color="#b1818b"/><stop offset=".55" stop-color="#9e7d95"/><stop offset=".77" stop-color="#937b9b"/><stop offset="1" stop-color="#8f7a9d"/></linearGradient><linearGradient id="linear-gradient-4" x1="165.23" y1="25.27" x2="190.95" y2="25.27" gradientUnits="userSpaceOnUse"><stop offset="0" stop-color="#fff471"/><stop offset=".09" stop-color="#f3ee78"/><stop offset=".51" stop-color="#c2d694"/><stop offset=".82" stop-color="#a3c8a6"/><stop offset="1" stop-color="#97c2ad"/></linearGradient><linearGradient id="linear-gradient-5" x1="317.66" y1="31.36" x2="350.26" y2="31.36" gradientUnits="userSpaceOnUse"><stop offset="0" stop-color="#8f7a9d"/><stop offset=".03" stop-color="#95819a"/><stop offset=".24" stop-color="#bbaa8c"/><stop offset=".45" stop-color="#d9ca80"/><stop offset=".65" stop-color="#eee178"/><stop offset=".84" stop-color="#fbef73"/><stop offset="1" stop-color="#fff471"/></linearGradient><linearGradient id="linear-gradient-6" x1="272.21" y1="26.37" x2="284.37" y2="26.37" gradientUnits="userSpaceOnUse"><stop offset="0" stop-color="#83c0da"/><stop offset=".18" stop-color="#9eb1bc"/><stop offset=".4" stop-color="#bba09c"/><stop offset=".62" stop-color="#cf9585"/><stop offset=".82" stop-color="#dc8d77"/><stop offset="1" stop-color="#e08b72"/></linearGradient></defs><path d="M189.56 32.9c0 .66.19.66.32.66s.84-.28 1.38-2.68a2.29 2.29 0 0 0-1.7 2.02z" fill="none"/><path d="M213.63 31.81l-1.23-.5c-.67-.27-1.27-.52-1.76-.71a25.86 25.86 0 0 0 .57-3.22.55.55 0 0 0-.45-.61l-2-.35a.56.56 0 0 0-.43.11.55.55 0 0 0-.21.39 16.23 16.23 0 0 1-.46 2.62 39.82 39.82 0 0 0-12.35-2.1 104.68 104.68 0 0 0 1.61-13.5.55.55 0 0 0-.55-.58h-6.23a.55.55 0 0 0-.55.55V16a.55.55 0 0 0 .55.55h3.39A75.81 75.81 0 0 1 192 27.5c-2.78.44-5.63 2.3-5.63 5.51a3.39 3.39 0 0 0 3.49 3.74c1.75 0 2.9-.86 3.72-2.8a13.34 13.34 0 0 0 1-3.41 31.7 31.7 0 0 1 12.21 2.11 11.51 11.51 0 0 1-2.44 4.35.55.55 0 0 0 .22.87l2 .76a.55.55 0 0 0 .61-.16 13.53 13.53 0 0 0 2.58-4.69l.42.19c.82.36 1.66.74 2.39 1.11a.55.55 0 0 0 .78-.35l.59-2.25a.55.55 0 0 0-.31-.67zm-23.75 1.76c-.13 0-.32 0-.32-.66a2.29 2.29 0 0 1 1.7-2c-.54 2.38-1.14 2.66-1.38 2.66z" fill="#97c2ad"/><path d="M235.06 25h-1.42v-8.61a.55.55 0 0 0-.55-.55h-2.18a.55.55 0 0 0-.55.55V28a.55.55 0 0 0 .67.54 18.21 18.21 0 0 1 4-.4c4.47 0 4.82 3 4.82 3.94-.07 2.92-2.16 5.1-6.39 6.67a.55.55 0 0 0-.22.88l1.38 1.56a.55.55 0 0 0 .6.15c5-1.79 7.81-5.11 7.81-9.1.03-3.35-2.03-7.24-7.97-7.24zm.89-12.87l.43.23c2 1.1 3.52 1.89 4.73 2.69a.55.55 0 0 0 .3.09h.13a.55.55 0 0 0 .35-.27l1-1.9a.55.55 0 0 0-.19-.73c-2.45-1.51-4.06-2.38-5.05-2.89a.55.55 0 0 0-.71.18l-1.21 1.84a.55.55 0 0 0 .2.79z" fill="#f7b520"/><path d="M284.66 20.54a.55.55 0 0 0-.67-.14l-1.9 1a.55.55 0 0 0-.19.82 21 21 0 0 1 3.47 8.5.55.55 0 0 0 .54.45h.17l2.15-.69a.55.55 0 0 0 .38-.6 19.33 19.33 0 0 0-3.95-9.34z" fill="#e08b72"/><path d="M272.54 30a.55.55 0 0 0-.47-.08 40.85 40.85 0 0 1-4.58 1 35.21 35.21 0 0 1-.36-5 37.94 37.94 0 0 1 .61-7.17.55.55 0 0 0-.45-.65l-2.08-.35a.55.55 0 0 0-.63.43 38.28 38.28 0 0 0-.7 7.83 29.15 29.15 0 0 0 1 8.08.55.55 0 0 0 .53.4h.11l.8-.16c2.13-.42 4.79-.95 6.19-1.42a.55.55 0 0 0 .38-.54l-.07-2a.55.55 0 0 0-.28-.37z" fill="#83c0da"/><path d="M320.4 13.58a.55.55 0 0 0 0-.75l-1.56-1.66a.6.6 0 0 0-.41-.17.55.55 0 0 0-.4.19 114 114 0 0 1-14.3 13.36.55.55 0 0 0-.05.82c4.3 4.36 8.78 9.41 13.71 15.44a.55.55 0 0 0 .4.2.55.55 0 0 0 .39-.16l1.56-1.56a.55.55 0 0 0 0-.73 161.42 161.42 0 0 0-12-13.35 104.51 104.51 0 0 0 12.66-11.63z" fill="#8f7a9d"/><path d="M167.72 19.2a8.89 8.89 0 0 1-2.58-.37c.16-.64.31-1.29.48-1.93a.76.76 0 0 0-1.47-.41c-.16.62-.3 1.23-.45 1.84a41.87 41.87 0 0 1-7.55-4.55c-4.35-3-9.42-7.05-11.41-12.12-.36-.91-1.83-.51-1.47.41 2 5.11 6.6 8.94 10.87 12.14 2.48 1.86 5.81 4.34 9.2 5.64a126.55 126.55 0 0 0-2.81 16.37c-11.32 0-22.63-.13-34-.16A87.77 87.77 0 0 0 123 18.23a42.08 42.08 0 0 0 7.58-3.23c4-2.08 8.63-5 10.53-9.28.4-.89-.92-1.67-1.32-.77-1.73 3.87-5.75 6.36-9.3 8.36a36.42 36.42 0 0 1-8 3.55c-.19-.5-.38-1-.58-1.5-.37-.9-1.85-.51-1.47.41q.29.71.56 1.43a13.62 13.62 0 0 1-1.88.22c-1 0-1 1.57 0 1.53a14.9 14.9 0 0 0 2.39-.3 85.9 85.9 0 0 1 3.49 17.4h-3.66a.76.76 0 0 0 0 1.53h3.84l.06.53c.11 1 1.64 1 1.53 0l-.06-.53c11.21 0 22.42.13 33.63.16 0 .36-.07.72-.1 1.09-.07 1 1.45 1 1.53 0 0-.36.07-.72.1-1.09h3a.76.76 0 0 0 0-1.53H162a124 124 0 0 1 2.74-15.89 10.38 10.38 0 0 0 2.94.4.76.76 0 0 0 .04-1.52z" fill="#fff23f"/><path d="M212.54 33.55c1.84 3.9 6.06-.41 7.71-2.24a13.22 13.22 0 0 0 3-4.49 15.54 15.54 0 0 1 4.2-6.71c1.47-1.37 2-2.48 3.61-3.82.27-.23-.12-.62-.39-.39a47.6 47.6 0 0 0-5.35 5.65c-1.57 1.78-2 4.22-3.13 6.24S215 37.56 213 33.28c-.15-.32-.63 0-.47.28z" fill="url(#linear-gradient)"/><path d="M234.59 41.11c5.65 3.89 12.11.66 16-3.91a43 43 0 0 0 6-10.16 19.92 19.92 0 0 1 4.26-6.32c1.14-1.09 4.72-4.39 4.93-.64 0 .35.57.35.55 0-.11-2-1-2.86-2.9-2-3.49 1.61-5.76 5.36-7.32 8.66-2 4.27-4.19 8.36-7.53 11.77-3.51 3.59-9.37 5.15-13.79 2.1-.29-.2-.57.27-.28.47z" fill="url(#linear-gradient-2)"/><path d="M286 29.29c5.31 3.5 10.7-3.1 13.76-6.71 2.42-2.85 4.64-5.88 7.24-8.58a13.66 13.66 0 0 1 4-2.86c2.29-1.12 10.73-3.9 9.09 2a.28.28 0 0 0 .53.15c1-3.68-2.93-4.83-5.77-4.19a17.68 17.68 0 0 0-9.27 5.68c-3 3.29-5.56 6.93-8.61 10.18-2.64 2.81-6.7 6.48-10.65 3.88-.3-.2-.57.28-.28.47z" fill="url(#linear-gradient-3)"/><path d="M165.49 37.08c6.11.51 8.56-3.27 9.68-8.74.54-2.63.8-5.44 2.13-7.82 1.23-2.21 4.2-3.29 6.4-4.18 2.4-1 2.9-1.66 7.18-2.4.34-.06-.63-.58-1-.54-3.93.48-6.92 2.34-10.34 4.3-2.31 1.32-3.31 3.28-4 5.77-1.61 6.15-1.6 13.76-10.1 13-.35 0-.35.52 0 .55z" fill="url(#linear-gradient-4)"/><path d="M350 20.6c-3.23 0-6.52-.12-9.54 1.18s-5.46 4.35-7.12 7.13c-3.57 6-6.31 15.95-15.26 11.63-.32-.15-.6.32-.28.47 6.47 3.12 10.27-.84 13.19-6.4 1.87-3.57 3.46-6.93 6.31-9.86 3.51-3.61 8-3.6 12.7-3.6a.27.27 0 0 0 0-.55z" fill="url(#linear-gradient-5)"/><path class="cls-13" d="M352.58 20.23a.69.69 0 0 0 0 1.37.69.69 0 0 0 0-1.37zm3.32-.8a.69.69 0 0 0 0 1.37.69.69 0 0 0 0-1.37zm3.44-.79a.69.69 0 0 0 0 1.37.69.69 0 0 0 0-1.37z"/><circle class="cls-14" cx="134.62" cy="20.99" r="2.21"/><circle class="cls-14" cx="150.7" cy="20.99" r="2.21"/><ellipse class="cls-14" cx="143.09" cy="25.04" rx="2.64" ry="1.52"/><path class="cls-14" d="M135.48 27.81a21.46 21.46 0 0 0 8.51 1c5.35-.26 7-1 7-1s-1.1 5.51-7.73 5.55-7.78-5.55-7.78-5.55z"/><path d="M272.66 32.66c1.76-2.23 1.39-5.18 2.77-7.59 1.52-2.67 5.53-5.42 8.6-4.23.33.13.47-.4.15-.53-2.72-1.06-5.35.61-7.36 2.36a9.13 9.13 0 0 0-2.46 3.33c-.89 2.12-.58 4.35-2.09 6.26-.22.28.17.67.39.39z" fill="url(#linear-gradient-6)"/><path class="cls-13" d="M373.23 16a6.13 6.13 0 0 1-1-.79 7.64 7.64 0 0 1-.19-1.53.35.35 0 0 0-.64-.17c-.32.46-.67 1.17-1.38 1-.34-.06-.67-.17-1-.21s-.45.4-.24.59c.38.36.83.54.53 1.08-.19.34-.41.66-.58 1a.35.35 0 0 0 .39.5c.49-.15.89-.48 1.36-.66a8.67 8.67 0 0 0 .66 1.51c.2.25.58 0 .59-.24a6.27 6.27 0 0 1 .12-1.16c.08-.36.93-.29 1.22-.33a.35.35 0 0 0 .16-.59zm-6.9 1c-.39-.17-.85-.21-1.21-.43-.19-.43-.27-.88-.49-1.3a.35.35 0 0 0-.63.08c-.09.35-.13.72-.22 1.07s-.84.4-1.25.47-.27.55 0 .66.71.17.66.49a7 7 0 0 1-.22.8.35.35 0 0 0 .57.33c.26-.23.55-.42.81-.65a2.73 2.73 0 0 0 .72.77.35.35 0 0 0 .5-.21 1 1 0 0 0-.09-.83c-.3-.64.39-.56.76-.65a.35.35 0 0 0 .09-.6z"/><text transform="translate(.61 28.8)" font-size="13" font-family="TsukuARdGothic-Bold-83pv-RKSJ-H,Tsukushi A Round Gothic" font-weight="700" letter-spacing=".05em">企業主導型保育所</text></svg>