<svg xmlns="http://www.w3.org/2000/svg" xmlns:xlink="http://www.w3.org/1999/xlink" viewBox="0 0 280 54"><defs><style>.cls-1{fill:none}.cls-14{fill:#fff471}.cls-15{fill:#2e2624}</style><clipPath id="clip-path"><path class="cls-1" d="M-594-226h500v350h-500z"/></clipPath><linearGradient id="linear-gradient" x1="103.34" y1="34.54" x2="123.82" y2="34.54" gradientUnits="userSpaceOnUse"><stop offset="0" stop-color="#97c2ad"/><stop offset=".6" stop-color="#d3ba55"/><stop offset="1" stop-color="#f7b520"/></linearGradient><linearGradient id="linear-gradient-2" x1="127.45" y1="39.83" x2="162.52" y2="39.83" gradientUnits="userSpaceOnUse"><stop offset="0" stop-color="#f7b520"/><stop offset=".21" stop-color="#e1b743"/><stop offset=".68" stop-color="#abbc9a"/><stop offset="1" stop-color="#83c0da"/></linearGradient><linearGradient id="linear-gradient-3" x1="183.89" y1="28.07" x2="222.18" y2="28.07" gradientUnits="userSpaceOnUse"><stop offset="0" stop-color="#e08b72"/><stop offset=".13" stop-color="#cb877d"/><stop offset=".34" stop-color="#b1818b"/><stop offset=".55" stop-color="#9e7d95"/><stop offset=".77" stop-color="#937b9b"/><stop offset="1" stop-color="#8f7a9d"/></linearGradient><linearGradient id="linear-gradient-4" x1="51.42" y1="34.3" x2="79.67" y2="34.3" gradientUnits="userSpaceOnUse"><stop offset="0" stop-color="#fff471"/><stop offset=".09" stop-color="#f3ee78"/><stop offset=".51" stop-color="#c2d694"/><stop offset=".82" stop-color="#a3c8a6"/><stop offset="1" stop-color="#97c2ad"/></linearGradient><linearGradient id="linear-gradient-5" x1="218.8" y1="40.99" x2="254.6" y2="40.99" gradientUnits="userSpaceOnUse"><stop offset="0" stop-color="#8f7a9d"/><stop offset=".03" stop-color="#95819a"/><stop offset=".24" stop-color="#bbaa8c"/><stop offset=".45" stop-color="#d9ca80"/><stop offset=".65" stop-color="#eee178"/><stop offset=".84" stop-color="#fbef73"/><stop offset="1" stop-color="#fff471"/></linearGradient><linearGradient id="linear-gradient-6" x1="168.9" y1="35.51" x2="182.25" y2="35.51" gradientUnits="userSpaceOnUse"><stop offset="0" stop-color="#83c0da"/><stop offset=".18" stop-color="#9eb1bc"/><stop offset=".4" stop-color="#bba09c"/><stop offset=".62" stop-color="#cf9585"/><stop offset=".82" stop-color="#dc8d77"/><stop offset="1" stop-color="#e08b72"/></linearGradient></defs><g id="デザイン"><g clip-path="url(#clip-path)"><image width="2000" height="1333" transform="matrix(.35 0 0 .35 -620 -265)" xlink:href="../miraiku/Links/DSC_2142.jpg"/></g><path class="cls-1" d="M78.14 42.69c0 .73.21.73.35.73s.92-.31 1.52-2.94a2.51 2.51 0 0 0-1.87 2.21z"/><path d="M104.57 41.48l-1.36-.55c-.73-.3-1.39-.57-1.94-.78a28.4 28.4 0 0 0 .62-3.54.6.6 0 0 0-.49-.67l-2.17-.38a.61.61 0 0 0-.47.12.6.6 0 0 0-.23.43A17.82 17.82 0 0 1 98 39a43.73 43.73 0 0 0-13.56-2.3 114.94 114.94 0 0 0 1.77-14.82.6.6 0 0 0-.16-.45 1.29 1.29 0 0 1-.44-.68H78.8c-.33.5-.6.76-.27 1.1v2.36c-.33.33-.06.6.27.54h3.72a82.89 82.89 0 0 1-1.69 12c-3.06.49-6.18 2.53-6.18 6.05 0 2.49 1.51 4.1 3.84 4.1 1.92 0 3.18-.95 4.08-3.08a14.65 14.65 0 0 0 1.09-3.74 34.81 34.81 0 0 1 13.41 2.31 12.64 12.64 0 0 1-2.69 4.77.6.6 0 0 0 .25 1l2.21.84a.6.6 0 0 0 .67-.17 14.86 14.86 0 0 0 2.84-5.15l.46.21c.9.4 1.82.81 2.63 1.22a.6.6 0 0 0 .85-.39l.65-2.47a.6.6 0 0 0-.37-.77zm-26.08 1.93c-.14 0-.35 0-.35-.73A2.51 2.51 0 0 1 80 40.47c-.59 2.64-1.24 2.94-1.51 2.94z" fill="#97c2ad"/><path d="M128.11 34h-1.58v-9.45c0-.33-.25-.6-.59-.84h-2.4c-.33.23-.6.5-1 .84v12.74a2 2 0 0 1 .64.47.6.6 0 0 0 .51.11 20 20 0 0 1 4.42-.44c4.91 0 5.29 3.32 5.29 4.33-.07 3.2-2.37 5.6-7 7.32a.6.6 0 0 0-.24 1l1.52 1.71a.6.6 0 0 0 .66.17c5.45-2 8.57-5.61 8.57-10-.02-3.68-2.32-7.96-8.8-7.96zm.97-14.13l.47.25c2.24 1.21 3.86 2.08 5.19 3a.6.6 0 0 0 .33.1h.15a.6.6 0 0 0 .38-.3l1.14-2.09a.6.6 0 0 0-.21-.8c-2.69-1.66-4.46-2.61-5.55-3.18a.6.6 0 0 0-.78.2l-1.33 2a.6.6 0 0 0 .22.86z" fill="#f7b520"/><path d="M182.56 29.11a.6.6 0 0 0-.74-.15L179.73 30a.6.6 0 0 0-.21.9 23 23 0 0 1 3.81 9.33.6.6 0 0 0 .78.46l2.36-.76a.6.6 0 0 0 .41-.66 21.23 21.23 0 0 0-4.32-10.16z" fill="#e08b72"/><path d="M169.26 39.46a.6.6 0 0 0-.52-.09 44.85 44.85 0 0 1-5 1.14 38.66 38.66 0 0 1-.4-5.51 41.66 41.66 0 0 1 .67-7.87.6.6 0 0 0-.49-.71l-2.31-.42a.6.6 0 0 0-.69.47 42 42 0 0 0-.77 8.6 32 32 0 0 0 1 8.88.6.6 0 0 0 .58.44h.12l.88-.18c2.34-.46 5.25-1 6.79-1.56a.6.6 0 0 0 .41-.59l-.08-2.17a.6.6 0 0 0-.19-.43z" fill="#83c0da"/><path d="M221.81 21.46a.6.6 0 0 0 0-.82l-1.71-1.83a.65.65 0 0 0-.45-.19.6.6 0 0 0-.44.21 125.19 125.19 0 0 1-15.7 14.67.6.6 0 0 0-.06.9c4.72 4.79 9.64 10.33 15.06 17a.61.61 0 0 0 .44.22.6.6 0 0 0 .43-.18l1.71-1.71a.6.6 0 0 0 0-.8A177.24 177.24 0 0 0 208 34.23a114.75 114.75 0 0 0 13.81-12.77z" fill="#8f7a9d"/><path d="M54.16 27.64a9.77 9.77 0 0 1-2.83-.4c.17-.71.34-1.41.52-2.12a.84.84 0 0 0-1.62-.45c-.17.68-.33 1.35-.5 2a46 46 0 0 1-8.29-5C36.67 18.4 31.1 13.95 28.91 8.38c-.39-1-2-.56-1.62.45 2.2 5.61 7.24 9.81 11.93 13.33 2.73 2 6.38 4.77 10.11 6.19a139 139 0 0 0-3.09 18c-12.43 0-24.85-.14-37.28-.18a96.37 96.37 0 0 0-3.9-19.6A46.21 46.21 0 0 0 13.38 23c4.38-2.28 9.47-5.5 11.56-10.19.44-1-1-1.83-1.45-.85-1.9 4.25-6.31 7-10.21 9.18A40 40 0 0 1 4.51 25c-.2-.55-.42-1.1-.64-1.64-.4-1-2-.55-1.62.45q.32.78.61 1.57a15 15 0 0 1-2.06.24c-1.08 0-1.08 1.72 0 1.68a16.36 16.36 0 0 0 2.63-.3 94.32 94.32 0 0 1 3.86 19.14h-4a.84.84 0 0 0 0 1.68h4.2l.07.59c.12 1.06 1.8 1.07 1.68 0l-.07-.58c12.31 0 24.62.14 36.93.17 0 .4-.08.8-.11 1.2-.08 1.08 1.6 1.07 1.68 0 0-.4.07-.79.11-1.19H51a.84.84 0 0 0 0-1.68h-3.08a136.13 136.13 0 0 1 3-17.45 11.4 11.4 0 0 0 3.22.44.84.84 0 0 0 .02-1.68z" fill="#fff23f"/><path d="M103.37 43.4c2 4.28 6.65-.45 8.46-2.46a14.52 14.52 0 0 0 3.3-4.93 17.06 17.06 0 0 1 4.61-7.37c1.62-1.5 2.22-2.73 4-4.19.3-.25-.13-.68-.43-.43a52.27 52.27 0 0 0-5.87 6.2c-1.72 2-2.2 4.64-3.44 6.85s-7.86 10.73-10.09 6c-.17-.35-.69 0-.52.3z" fill="url(#linear-gradient)"/><path d="M127.59 51.7c6.2 4.27 13.3.72 17.59-4.29a47.2 47.2 0 0 0 6.64-11.16 21.87 21.87 0 0 1 4.68-6.94c1.25-1.2 5.18-4.82 5.41-.7 0 .39.63.39.6 0-.12-2.18-1.08-3.14-3.18-2.17-3.84 1.77-6.32 5.88-8 9.51-2.21 4.69-4.61 9.18-8.27 12.93-3.86 3.95-10.29 5.65-15.14 2.31-.32-.22-.62.3-.3.52z" fill="url(#linear-gradient-2)"/><path d="M184 38.72c5.83 3.84 11.74-3.41 15.11-7.37 2.66-3.13 5.09-6.46 7.95-9.42a15 15 0 0 1 4.34-3.15c2.52-1.23 11.78-4.29 10 2.18a.3.3 0 0 0 .58.16c1.13-4-3.22-5.31-6.34-4.6a19.41 19.41 0 0 0-10.17 6.24c-3.28 3.61-6.11 7.61-9.46 11.17-2.9 3.09-7.35 7.12-11.7 4.26-.33-.21-.63.31-.3.52z" fill="url(#linear-gradient-3)"/><path d="M51.71 47.27c6.71.56 9.4-3.59 10.63-9.6.59-2.89.87-6 2.33-8.58 1.36-2.43 4.61-3.61 7-4.59 2.64-1.07 3.19-1.82 7.88-2.63.38-.07-.69-.64-1.08-.59-4.31.52-7.6 2.57-11.36 4.72-2.53 1.45-3.63 3.6-4.35 6.34C61 39.1 61 47.45 51.71 46.67c-.39 0-.38.57 0 .6z" fill="url(#linear-gradient-4)"/><path d="M254.3 29.18c-3.55 0-7.16-.13-10.48 1.3s-6 4.77-7.82 7.83c-3.92 6.54-6.93 17.51-16.75 12.77-.35-.17-.66.35-.3.52 7.1 3.43 11.28-.93 14.48-7 2.05-3.92 3.79-7.61 6.93-10.83 3.85-4 8.79-3.95 13.95-4a.3.3 0 0 0-.01-.59z" fill="url(#linear-gradient-5)"/><path class="cls-14" d="M257.15 28.76a.75.75 0 0 0 0 1.51.75.75 0 0 0 0-1.51zm3.64-.87a.75.75 0 0 0 0 1.51.75.75 0 0 0 0-1.51zm3.78-.89a.75.75 0 0 0 0 1.51.75.75 0 0 0 0-1.51z"/><circle class="cls-15" cx="17.81" cy="29.61" r="2.43"/><circle class="cls-15" cx="35.47" cy="29.61" r="2.43"/><ellipse class="cls-15" cx="27.12" cy="34.05" rx="2.9" ry="1.67"/><path class="cls-15" d="M18.76 37.09a23.56 23.56 0 0 0 9.34 1.14c5.88-.29 7.64-1.14 7.64-1.14s-1.21 6-8.49 6.1-8.49-6.1-8.49-6.1z"/><path d="M169.39 42.42c1.93-2.45 1.53-5.68 3-8.33 1.67-2.93 6.07-6 9.44-4.64.36.14.52-.44.16-.58-3-1.16-5.87.67-8.08 2.59a10 10 0 0 0-2.7 3.66c-1 2.33-.63 4.78-2.29 6.88-.24.3.19.73.43.43z" fill="url(#linear-gradient-6)"/><path class="cls-14" d="M279.82 24.13a6.73 6.73 0 0 1-1.09-.87 8.39 8.39 0 0 1-.21-1.69.38.38 0 0 0-.7-.19c-.35.5-.74 1.29-1.52 1.15-.38-.07-.73-.18-1.11-.23s-.49.43-.27.64c.42.39.92.6.58 1.19-.21.37-.45.72-.64 1.11a.38.38 0 0 0 .43.55c.53-.16 1-.52 1.5-.72a9.52 9.52 0 0 0 .73 1.66c.22.27.64 0 .64-.27a6.88 6.88 0 0 1 .14-1.28c.08-.4 1-.32 1.34-.36a.38.38 0 0 0 .18-.69zm-7.58 1.13c-.43-.19-.93-.24-1.33-.47-.21-.47-.3-1-.54-1.42a.38.38 0 0 0-.69.09c-.1.39-.14.79-.24 1.18-.13.55-.92.44-1.37.51s-.3.6 0 .73.78.18.72.54a7.73 7.73 0 0 1-.25.88.38.38 0 0 0 .63.37c.29-.25.6-.46.89-.71a3 3 0 0 0 .8.84.38.38 0 0 0 .55-.23 1.06 1.06 0 0 0-.1-.91c-.33-.7.42-.61.83-.71a.38.38 0 0 0 .1-.69z"/><text transform="translate(98.21 10.07)" font-size="11" font-family="TsukuARdGothic-Bold-83pv-RKSJ-H,Tsukushi A Round Gothic" font-weight="700" letter-spacing=".05em">企業主導型保育所</text></g></svg>