<svg id="背景" xmlns="http://www.w3.org/2000/svg" viewBox="0 0 720 460"><defs><style>.cls-4{fill:#fff}.cls-10,.cls-2{stroke-miterlimit:10;fill:none}.cls-2{stroke:#000;stroke-width:.5px}.cls-11,.cls-8{font-size:15px;font-family:TsukuARdGothic-Regular-83pv-RKSJ-H,Tsukushi A Round Gothic;letter-spacing:.05em}.cls-8{fill:#f29c97}.cls-10{stroke:#97c2ad;stroke-width:3px}.cls-11{fill:#97c2ad}</style></defs><path stroke-miterlimit="10" fill-opacity=".6" stroke="#e9473f" stroke-width=".75" stroke-dasharray="6 6" fill="#fff" d="M154.5 268.5h250v189h-250z"/><path class="cls-2" d="M559 228.5H101m80 117h-80m80 63h-80M100.5 25v384"/><text transform="translate(246.89 303.71)" fill="#e9473f" font-family="TsukuARdGothic-Bold-83pv-RKSJ-H,Tsukushi A Round Gothic" font-weight="700" letter-spacing=".1em" font-size="15">間接部門</text><rect class="cls-4" x="3.5" y="2.5" width="195" height="45" rx="6" ry="6"/><rect x="3.5" y="2.5" width="195" height="45" rx="6" ry="6" stroke-width="3" stroke="#f7b520" fill="none" stroke-miterlimit="10"/><text transform="translate(77.14 29.98)" letter-spacing=".05em" font-family="TsukuARdGothic-Regular-83pv-RKSJ-H,Tsukushi A Round Gothic" fill="#f7b520" font-size="15">理事会</text><path class="cls-2" d="M181 106.5h-80m80 65h-80"/><rect class="cls-4" x="180.5" y="84.5" width="195" height="45" rx="6" ry="6"/><rect x="180.5" y="84.5" width="195" height="45" rx="6" ry="6" stroke="#f29c97" stroke-width="3" fill="none" stroke-miterlimit="10"/><text class="cls-8" transform="translate(223.13 111.16)">会計士・社労士</text><rect class="cls-4" x="180.5" y="149.5" width="195" height="45" rx="6" ry="6"/><rect x="180.5" y="149.5" width="195" height="45" rx="6" ry="6" stroke-width="3" stroke="#f29c97" fill="none" stroke-miterlimit="10"/><text class="cls-8" transform="translate(231.01 176.16)">監 事</text><rect class="cls-4" x="521.5" y="76.5" width="195" height="45" rx="6" ry="6"/><rect class="cls-10" x="521.5" y="76.5" width="195" height="45" rx="6" ry="6"/><text class="cls-11" transform="translate(564.11 103.31)">みらいく保育園</text><rect class="cls-4" x="521.5" y="141.5" width="195" height="45" rx="6" ry="6"/><rect x="521.5" y="141.5" width="195" height="45" rx="6" ry="6" stroke-width="3" stroke="#97c2ad" fill="none" stroke-miterlimit="10"/><text class="cls-11" transform="translate(564.11 168.31)">みらいく小布施</text><rect class="cls-4" x="521.5" y="271.5" width="195" height="45" rx="6" ry="6"/><rect x="521.5" y="271.5" width="195" height="45" rx="6" ry="6" stroke-width="3" stroke="#97c2ad" fill="none" stroke-miterlimit="10"/><text class="cls-11" transform="translate(564.11 298.3)">みらいく早苗町</text><rect class="cls-4" x="521.5" y="336.5" width="195" height="45" rx="6" ry="6"/><rect x="521.5" y="336.5" width="195" height="45" rx="6" ry="6" stroke-width="3" stroke="#97c2ad" fill="none" stroke-miterlimit="10"/><text transform="translate(553.53 363.3)" letter-spacing="-.02em" fill="#97c2ad" font-family="TsukuARdGothic-Regular-83pv-RKSJ-H,Tsukushi A Round Gothic" font-size="15">夜<tspan x="14.67" y="0">の</tspan><tspan x="29.38" y="0">保</tspan><tspan x="44.13" y="0">育園</tspan><tspan x="73.52" y="0" letter-spacing="-.03em">み</tspan><tspan x="88.02" y="0" letter-spacing="-.03em">ら</tspan><tspan x="102.5" y="0" letter-spacing="-.04em">い</tspan><tspan x="116.85" y="0" letter-spacing="-.04em">く</tspan></text><rect class="cls-4" x="521.5" y="206.5" width="195" height="45" rx="6" ry="6"/><rect class="cls-10" x="521.5" y="206.5" width="195" height="45" rx="6" ry="6"/><text transform="translate(564.11 233.31)" letter-spacing=".27em" fill="#97c2ad" font-family="TsukuARdGothic-Regular-83pv-RKSJ-H,Tsukushi A Round Gothic" font-size="15">みらいく高田</text><rect class="cls-4" x="182.5" y="323.5" width="195" height="45" rx="6" ry="6"/><rect x="182.5" y="323.5" width="195" height="45" rx="6" ry="6" stroke-width="3" stroke="#80bad3" fill="none" stroke-miterlimit="10"/><text transform="translate(232.64 350.26)" fill="#80bad3" letter-spacing=".05em" font-family="TsukuARdGothic-Regular-83pv-RKSJ-H,Tsukushi A Round Gothic" font-size="15">事業総括本部</text><rect class="cls-4" x="182.5" y="386.5" width="195" height="45" rx="6" ry="6"/><rect x="182.5" y="386.5" width="195" height="45" rx="6" ry="6" stroke-width="3" stroke="#80bad3" fill="none" stroke-miterlimit="10"/><text transform="translate(232.64 413.26)" letter-spacing=".34em" fill="#80bad3" font-family="TsukuARdGothic-Regular-83pv-RKSJ-H,Tsukushi A Round Gothic" font-size="15">地域交流局</text><path class="cls-2" d="M522 98.5h-80m80 65h-80m80 130h-80m80 65h-80m.5-259.5v260"/></svg>