<svg xmlns="http://www.w3.org/2000/svg" width="717.28" height="456.16" viewBox="0 0 717.28 456.16"><defs><style>.cls-1,.cls-4{fill:#fff;}.cls-1{fill-opacity:0.6;stroke:#e9473f;stroke-width:0.75px;stroke-dasharray:6 6;}.cls-1,.cls-11,.cls-2,.cls-5,.cls-7,.cls-9{stroke-miterlimit:10;}.cls-11,.cls-2,.cls-5,.cls-7,.cls-9{fill:none;}.cls-2{stroke:#000;stroke-width:0.5px;}.cls-3{fill:#e9473f;}.cls-5{stroke:#f7b520;}.cls-11,.cls-5,.cls-7,.cls-9{stroke-width:3px;}.cls-6{fill:#f7b520;}.cls-7{stroke:#f29c97;}.cls-8{fill:#f29c97;}.cls-9{stroke:#97c2ad;}.cls-10{fill:#97c2ad;}.cls-11{stroke:#80bad3;}.cls-12{fill:#80bad3;}</style></defs><g id="レイヤー_2" data-name="レイヤー 2"><g id="デザイン"><rect class="cls-1" x="153.13" y="266.78" width="250" height="189"/><line class="cls-2" x1="557.11" y1="227.33" x2="99" y2="227.33"/><line class="cls-2" x1="179" y1="344.28" x2="99" y2="344.28"/><line class="cls-2" x1="179" y1="407.28" x2="99" y2="407.28"/><line class="cls-2" x1="99" y1="24" x2="99" y2="407.28"/><path class="cls-3" d="M247.27,303.37a.65.65,0,0,1-.72-.62v0c.11-2.74.08-7.48.11-10.73,0-1.47,1-1.47,2.56-1.47h1.46a1.3,1.3,0,0,1,1.36,1.19c0,.52,0,1.06,0,1.59,0,1.89,0,2.26-3,2.26-.39,0-.77,0-1,0v1.35c0,1.62,0,3.72-.06,5.83A.66.66,0,0,1,247.27,303.37Zm3.48-10.81c0-.17,0-.32,0-.47,0-.42-.11-.46-1.31-.46s-1.33,0-1.36.58c0,.11,0,.23,0,.35Zm-2.7,1v.91c.21,0,.66,0,1.11,0,1.46,0,1.56-.06,1.58-.48,0-.14,0-.29,0-.45Zm5.82,8.15c-.4,0-.85.05-1.29.05s-.9,0-1.3-.05a1.45,1.45,0,0,1-1.49-1.39c0-.21,0-.46,0-.72,0-.68,0-1.45.06-2a1.38,1.38,0,0,1,1.41-1.34l1.21,0c.5,0,1,0,1.43,0a1.4,1.4,0,0,1,1.36,1.23c.05.52.06,1.19.06,1.8,0,.39,0,.75,0,1.07A1.49,1.49,0,0,1,253.87,301.7ZM251,299.39c0,1.17,0,1.19,1.56,1.19,1.11,0,1.54,0,1.57-.6,0-.16,0-.38,0-.59Zm3.13-1.06c0-.18,0-.33,0-.46,0-.56-.31-.61-1.33-.61-.38,0-.78,0-1.14,0a.59.59,0,0,0-.59.6c0,.13,0,.28,0,.45Zm2.1-2.76c-1.77,0-3,0-3.06-1.32,0-.3,0-.63,0-.94,0-.53,0-1.07,0-1.59a1.27,1.27,0,0,1,1.33-1.19h2.61c1.11.06,1.58.66,1.58,1.34V293c0,2.25,0,4.58,0,6.48,0,.71,0,1.34,0,1.86,0,1.06-.52,2-2.23,2-1.05,0-1.59-.14-1.59-.8a.6.6,0,0,1,.58-.66l.12,0a6.18,6.18,0,0,0,.8.08c.49,0,.87-.18.88-.91s0-1.24,0-1.92c0-1,0-2,0-3v-.62C257,295.56,256.62,295.57,256.18,295.57Zm1.07-3c0-.92,0-.93-1.41-.93-1.2,0-1.37,0-1.4.48,0,.13,0,.3,0,.45Zm0,1h-2.85c0,.16,0,.31,0,.45,0,.42.06.48,1.65.48.5,0,1,0,1.19,0Z"/><path class="cls-3" d="M275.23,298.74l-1.54,0a5.6,5.6,0,0,1-.57,1.88c1.17.54,2.26,1.36,2.26,1.94a.73.73,0,0,1-.7.74.7.7,0,0,1-.51-.24,7.32,7.32,0,0,0-1.77-1.42,6.43,6.43,0,0,1-4.65,1.69.69.69,0,0,1-.74-.67.6.6,0,0,1,.68-.6,5.56,5.56,0,0,0,3.48-1,6.55,6.55,0,0,0-1.32-.28.76.76,0,0,1-.71.46.59.59,0,0,1-.64-.57.78.78,0,0,1,.09-.33,16.21,16.21,0,0,0,.66-1.65l-1.64,0h0a.57.57,0,0,1-.59-.59.58.58,0,0,1,.6-.58h2c.3-1.08.3-1.08.48-1.22h-2.16a.6.6,0,0,1-.47-.19.42.42,0,0,1,0,.19.67.67,0,0,1-.36.59q-.51.31-1.08.63v1.82c0,.25.05,1.61.06,2.13v.06c0,.95-.61,1.68-1.92,1.68-.79,0-1.35-.13-1.35-.81a.63.63,0,0,1,.59-.69.3.3,0,0,1,.13,0,2.42,2.42,0,0,0,.48.06c.32,0,.62-.1.62-.49v-3.08c-1,.45-1.23.56-1.47.56a.71.71,0,0,1-.72-.72.67.67,0,0,1,.46-.65c.65-.24,1.2-.45,1.73-.67v-2.43h-1.37a.66.66,0,0,1,0-1.32h1.37l0-2.27a.69.69,0,0,1,.72-.7.67.67,0,0,1,.71.7V293h1a.66.66,0,0,1,0,1.32h-1v1.75c.18-.09.33-.19.51-.3a.61.61,0,0,1,.31-.09.6.6,0,0,1,.45.21,1.25,1.25,0,0,1,0-.19.57.57,0,0,1,.62-.59h1.8a5.5,5.5,0,0,0-.83-1.32.49.49,0,0,1-.16-.36.67.67,0,0,1,.69-.58c.61,0,1.5,1.45,1.5,1.83a.71.71,0,0,1-.14.43h.92a12.49,12.49,0,0,0,.67-1.8.61.61,0,0,1,.63-.48.77.77,0,0,1,.8.68,7.32,7.32,0,0,1-.74,1.6h2.12a.6.6,0,1,1,0,1.2h-3.26a.93.93,0,0,1-.24,0,.71.71,0,0,1-.21,0h-.55a.58.58,0,0,1,.22.45,3.09,3.09,0,0,1-.18.77h4.26a.57.57,0,0,1,.59.59.56.56,0,0,1-.57.58Zm-6.85-6a.6.6,0,1,1,0-1.2h2.23v-1a.64.64,0,0,1,.7-.63.66.66,0,0,1,.72.65v.93h2.44a.6.6,0,1,1,0,1.2Zm2.25,6c-.12.37-.24.73-.38,1.09a9.65,9.65,0,0,1,1.68.35,4.21,4.21,0,0,0,.42-1.44Z"/><path class="cls-3" d="M279.69,297.13a.58.58,0,0,1-.66-.57.62.62,0,0,1,.66-.63H283a12.31,12.31,0,0,0,.95-2.28.62.62,0,0,1,.63-.48.77.77,0,0,1,.79.66,9.49,9.49,0,0,1-1,2.1H286a.6.6,0,1,1,0,1.2Zm.31-4.23a.59.59,0,0,1-.67-.57.63.63,0,0,1,.67-.61h2.15l0-.92h0a.73.73,0,0,1,1.44,0h0v.92h2.17a.59.59,0,1,1,0,1.18ZM283,303c-.6,0-1.2,0-1.65,0a1.35,1.35,0,0,1-1.41-1.38c0-.32,0-.59,0-.84,0-.42,0-.79,0-1.23a1.36,1.36,0,0,1,1.37-1.35c.42,0,.93,0,1.42,0s1.23,0,1.68,0a1.42,1.42,0,0,1,1.44,1.29c0,.54.05,1,.05,1.48,0,.81,0,1.91-1.47,2C284,303,283.48,303,283,303Zm-1.86-7.69a3.87,3.87,0,0,0-.62-1.13.56.56,0,0,1-.15-.36.63.63,0,0,1,.66-.54c.62,0,1.38,1.32,1.38,1.71a.76.76,0,0,1-.72.74A.61.61,0,0,1,281.1,295.29Zm3.34,4.47c0-.48-.27-.48-1.6-.48h-1c-.52,0-.55.29-.55,1.37s0,1.1,1.62,1.1,1.59,0,1.59-1.31C284.46,300.24,284.46,300,284.44,299.76Zm4.26.57a.71.71,0,0,1,.66-.75h.15a2.18,2.18,0,0,0,.42.05c.26,0,.89-.06.89-1.15a3.22,3.22,0,0,0-.86-1.94,1.8,1.8,0,0,1-.46-1.16,2.89,2.89,0,0,1,.36-1.23,7.09,7.09,0,0,0,.73-1.8c0-.31-.21-.31-1-.31h-.69a.55.55,0,0,0-.53.59c0,.9,0,1.81,0,2.74,0,2,0,4.06,0,6.17v1.23a.67.67,0,0,1-.7.66.68.68,0,0,1-.74-.66c0-6.38,0-8.39.05-10.35a1.41,1.41,0,0,1,1.48-1.59c.41,0,.84,0,1.31,0s.66,0,1,0c1,0,1.5.55,1.5,1.26s-.17.9-1.05,2.44a1.49,1.49,0,0,0-.29.74c0,.24.14.43.41.78a4.08,4.08,0,0,1,1,2.61A2.26,2.26,0,0,1,290,301.2C289.3,301.2,288.7,301,288.7,300.33Z"/><path class="cls-3" d="M298.74,290.53c.6,0,1.21,0,1.5,0a1.28,1.28,0,0,1,1.3,1.24c0,.54,0,1.16,0,1.73,0,2.05,0,2.4-3,2.4-.39,0-.77,0-1,0v1.33c0,1.54,0,3.39-.06,5.5a.73.73,0,0,1-1.44,0v0c.11-2.74.08-7.24.11-10.66C296.16,290.53,297.22,290.53,298.74,290.53Zm1.51,2.18c0-.2,0-.36,0-.53,0-.49-.21-.51-1.31-.51s-1.33.06-1.36.63c0,.12,0,.26,0,.41Zm-2.7,1.08v1h1.11c1.46,0,1.56,0,1.58-.51,0-.15,0-.31,0-.49Zm8.13,2.13c-1.81,0-3,0-3.06-1.37,0-.31,0-.67,0-1,0-.57,0-1.19,0-1.73a1.25,1.25,0,0,1,1.27-1.24c.29,0,.93,0,1.55,0,.45,0,.87,0,1.12,0,1.11.06,1.58.69,1.58,1.39v1.16c0,2.31,0,4.47,0,6.37,0,.71,0,1.34,0,1.86,0,1.06-.52,2-2.23,2-1.05,0-1.59-.14-1.59-.8a.6.6,0,0,1,.58-.66l.12,0a6.18,6.18,0,0,0,.8.08c.49,0,.87-.18.88-.91s0-1.2,0-1.8c0-.9,0-1.81,0-2.75v-.62C306.51,295.9,306.12,295.92,305.68,295.92Zm1.07-3.21c0-1,0-1-1.41-1-1.07,0-1.37,0-1.4.53,0,.15,0,.33,0,.51Zm0,1.08h-2.85c0,.18,0,.34,0,.49,0,.48.15.51,1.65.51h1.19Z"/><rect class="cls-4" x="1.5" y="1.5" width="194.99" height="45" rx="6"/><rect class="cls-5" x="1.5" y="1.5" width="194.99" height="45" rx="6"/><path class="cls-6" d="M78.57,22H77.08a.31.31,0,0,1-.34-.33.34.34,0,0,1,.34-.36h1.49V18.45H76.86a.33.33,0,0,1-.35-.33.34.34,0,0,1,.35-.36H81a.32.32,0,0,1,.33.34.33.33,0,0,1-.33.35H79.3v2.86h1.4a.35.35,0,0,1,0,.69H79.3v3.27c.61-.23,1.19-.45,1.63-.66a.41.41,0,0,1,.19-.05.34.34,0,0,1,.33.35.36.36,0,0,1-.25.34,33.52,33.52,0,0,1-4.46,1.62.36.36,0,0,1-.4-.36.41.41,0,0,1,.32-.4c.62-.17,1.26-.38,1.91-.59Zm2.18,6.84a.33.33,0,0,1-.34-.32.35.35,0,0,1,.34-.36l4.16,0v-2H82.29a.31.31,0,0,1-.35-.33.34.34,0,0,1,.35-.34h2.62v-2l-1.37,0A1.4,1.4,0,0,1,82,22.08c0-.63,0-1.22,0-1.82s0-1.18,0-1.8a1.41,1.41,0,0,1,1.55-1.36c.61,0,1.17,0,1.74,0s1.17,0,1.84,0a1.43,1.43,0,0,1,1.55,1.33c0,.68,0,1.29,0,1.92s0,1.1,0,1.71a1.43,1.43,0,0,1-1.55,1.38c-.52,0-1,0-1.47,0v2h2.75a.34.34,0,0,1,0,.67H85.67v2l3.6,0a.31.31,0,0,1,.33.33.32.32,0,0,1-.33.35Zm4.16-11.12c-.42,0-.83,0-1.19,0a.9.9,0,0,0-1,.86c0,.43,0,.85,0,1.3h2.19Zm0,2.81H82.72c0,.48,0,.94,0,1.42s.37.84,1,.86h1.17Zm3-.62c0-.45,0-.9,0-1.32,0-.84-.54-.87-2.25-.87V19.9Zm-2.28.62v2.29H87a.89.89,0,0,0,1-.87c0-.47,0-.93,0-1.41Z"/><path class="cls-6" d="M103.25,25.15c0,.89,0,1.76-1.44,1.79H99.07v.11c0,.25,0,.64,0,.93,0,.7-.24,1.41-1.69,1.41S96,29.16,96,28.93a.38.38,0,0,1,.37-.39h.08a5.43,5.43,0,0,0,1,.12c.54,0,.86-.19.86-.87V27H94.15a.32.32,0,0,1,0-.63c1.08,0,2.64,0,4.17,0V25.12H92.44a.28.28,0,0,1-.28-.31.27.27,0,0,1,.28-.3h5.88V23.43c-1.5,0-3,0-4.19,0a.29.29,0,0,1-.28-.32.3.3,0,0,1,.3-.31h4.17V21.9c-3.93,0-4,0-4-1.2,0-.8.09-1.32,1.38-1.34h2.61v-1l-4.92,0a.32.32,0,0,1-.33-.35.31.31,0,0,1,.33-.33l4.92,0v-1a.38.38,0,0,1,.75,0v1l4.87,0a.33.33,0,0,1,.35.33.34.34,0,0,1-.35.35l-4.87,0v1h2.64c1.12,0,1.33.41,1.33,1.26s-.07,1.2-1.32,1.25c-.61,0-1.62,0-2.65,0v.93h2.76c1.35,0,1.42.75,1.42,1.62h1.62a.35.35,0,0,1,0,.69Zm-4.93-5.23c-1,0-2,0-2.51,0s-.7.21-.7.64c0,.09,0,.18,0,.26,0,.45.18.46,3.2.46Zm.75,1.39c3,0,3.15,0,3.18-.45a1.93,1.93,0,0,0,0-.25,2.17,2.17,0,0,0,0-.26c0-.42-.17-.43-3.18-.43Zm3.43,3.2c0-.53,0-1-.82-1.05s-1.68,0-2.61,0v1.08Zm-3.43.61v1.22c1,0,1.87,0,2.61,0s.82-.66.82-1.2Z"/><path class="cls-6" d="M120.25,22.33c-.6,0-3.5-2.35-5.25-4.32-.24-.27-.44-.4-.63-.4s-.36.13-.57.4c-1.68,2.15-4.72,4.73-5.34,4.73a.45.45,0,0,1-.45-.44.46.46,0,0,1,.28-.4,17.23,17.23,0,0,0,5-4.47,1.36,1.36,0,0,1,1.07-.6,1.62,1.62,0,0,1,1.12.58,19,19,0,0,0,5,4.07.4.4,0,0,1,.25.37A.5.5,0,0,1,120.25,22.33Zm-6.53,2.12a27.29,27.29,0,0,1-1.35,3.61c1.79-.16,3.54-.39,5.24-.69A15.44,15.44,0,0,0,116,26a.34.34,0,0,1-.16-.27.37.37,0,0,1,.4-.33c.64,0,3.48,2.64,3.48,3.33a.46.46,0,0,1-.47.45.39.39,0,0,1-.33-.2,7.83,7.83,0,0,0-.78-1.08A59.34,59.34,0,0,1,109.72,29a.36.36,0,0,1-.35-.39.34.34,0,0,1,.32-.38c.61,0,1.23-.07,1.83-.12a23.19,23.19,0,0,0,1.31-3.67l-3.37,0a.33.33,0,0,1-.35-.35.37.37,0,0,1,.37-.39h9.73a.36.36,0,0,1,.39.36.36.36,0,0,1-.39.38Zm-1.62-2.78a.36.36,0,1,1,0-.72h4.71a.36.36,0,1,1,0,.72Z"/><line class="cls-2" x1="179" y1="105.18" x2="99" y2="105.18"/><line class="cls-2" x1="179" y1="170.18" x2="99" y2="170.18"/><rect class="cls-4" x="179" y="82.68" width="194.99" height="45" rx="6"/><rect class="cls-7" x="179" y="82.68" width="194.99" height="45" rx="6"/><path class="cls-8" d="M234.74,103.52c-.6,0-3.49-2.36-5.25-4.32-.24-.27-.43-.41-.62-.41s-.37.14-.58.41c-1.67,2.14-4.72,4.72-5.34,4.72a.45.45,0,0,1-.45-.43.48.48,0,0,1,.29-.41,17,17,0,0,0,5-4.47,1.37,1.37,0,0,1,1.07-.6,1.61,1.61,0,0,1,1.12.59,18.93,18.93,0,0,0,5,4.06.42.42,0,0,1,.26.38A.5.5,0,0,1,234.74,103.52Zm-6.52,2.11a29.48,29.48,0,0,1-1.35,3.62c1.79-.17,3.54-.39,5.23-.69a14.57,14.57,0,0,0-1.62-1.34.36.36,0,0,1-.16-.27.39.39,0,0,1,.4-.33c.65,0,3.48,2.64,3.48,3.33a.46.46,0,0,1-.46.45.4.4,0,0,1-.33-.19,8.77,8.77,0,0,0-.78-1.08,58.92,58.92,0,0,1-8.42,1.06.36.36,0,0,1-.34-.39.33.33,0,0,1,.32-.37c.61,0,1.22-.08,1.82-.12a21.47,21.47,0,0,0,1.31-3.68l-3.36,0a.34.34,0,0,1-.36-.34.38.38,0,0,1,.38-.39h9.73a.37.37,0,1,1,0,.73Zm-1.62-2.77a.36.36,0,0,1,0-.72h4.71a.35.35,0,0,1,.36.36.35.35,0,0,1-.38.36Z"/><path class="cls-8" d="M238.58,100.92a.35.35,0,0,1-.37-.36.35.35,0,0,1,.37-.34h5.49a.35.35,0,0,1,.38.34.35.35,0,0,1-.38.36Zm2.58,9.38c-.49,0-1,0-1.27,0a1.08,1.08,0,0,1-1.11-1.08c0-.3,0-.66,0-1s0-.71,0-1a1.06,1.06,0,0,1,1.08-1.08c.34,0,.79,0,1.23,0s1.08,0,1.45,0a1.14,1.14,0,0,1,1.19,1c0,.29,0,.74,0,1.16,0,1,0,1.9-1.28,2C242.15,110.28,241.66,110.3,241.16,110.3Zm-1.92-11.45a.34.34,0,0,1-.34-.36.34.34,0,0,1,.34-.34h4a.34.34,0,0,1,.34.34.34.34,0,0,1-.34.36Zm0,4a.33.33,0,0,1-.36-.33.33.33,0,0,1,.36-.33h4a.32.32,0,0,1,.34.33.33.33,0,0,1-.34.33Zm0,2a.33.33,0,0,1-.36-.33.33.33,0,0,1,.36-.33h4a.33.33,0,0,1,.34.33.32.32,0,0,1-.34.33Zm3.72,3.33c0-1.08,0-1.39-.7-1.41h-2.13c-.66,0-.66.56-.66,1.44,0,.3,0,.6,0,.81.05.51.21.59,1.68.59s1.73,0,1.77-.6C243,108.8,243,108.48,243,108.18Zm4.35-4.89-2.67,0a.36.36,0,0,1-.37-.38.35.35,0,0,1,.37-.36l2.67,0V98.25a.42.42,0,0,1,.84,0l0,4.34,2.75,0a.37.37,0,0,1,.4.38.36.36,0,0,1-.4.36l-2.75,0,0,7a.42.42,0,0,1-.84,0Z"/><path class="cls-8" d="M255.23,109.77a.37.37,0,0,1-.37-.39.36.36,0,0,1,.37-.37H260v-5.7l-5.34,0a.39.39,0,0,1,0-.77H260V98.49a.43.43,0,0,1,.85,0v4.08h5.33a.39.39,0,0,1,0,.77l-5.34,0V109h4.75a.35.35,0,0,1,.35.37.36.36,0,0,1-.35.39Z"/><path class="cls-8" d="M274.93,104.09a1.19,1.19,0,0,1,2.37,0,1.19,1.19,0,1,1-2.37,0Z"/><path class="cls-8" d="M288.05,104.58a7,7,0,0,1-2.38,1.71.4.4,0,0,1-.4-.39.36.36,0,0,1,.22-.34c2.62-1.41,4.29-4.08,4.29-4.59,0-.2-.14-.3-.35-.3-.88,0-2.47,0-3.39.07h0a.33.33,0,0,1-.35-.34.35.35,0,0,1,.35-.35l2,0V98.18a.38.38,0,0,1,.4-.38.38.38,0,0,1,.42.38V100h.8c.67,0,1,.33,1,.78,0,.66-1,2-1.84,3,0,1.41,0,6.52,0,6.52a.36.36,0,0,1-.4.33c-.21,0-.42-.1-.42-.33Zm2.94,1.25a5.69,5.69,0,0,0-1.54-1.31.24.24,0,0,1-.14-.21.35.35,0,0,1,.36-.33c.29,0,2,1.1,2,1.61a.39.39,0,0,1-.72.24Zm-.64,4.12a.36.36,0,1,1,0-.72l3.51,0,0-5.91h-2.53a.37.37,0,1,1,0-.73h2.53V98.39a.42.42,0,0,1,.83,0l0,4.24h2.78a.37.37,0,1,1,0,.73h-2.78v5.91l3.41,0a.36.36,0,1,1,0,.72Z"/><path class="cls-8" d="M307.49,105.24a7.16,7.16,0,0,1-5.37,5.54,1.13,1.13,0,0,1-.18,0,.46.46,0,0,1-.46-.45.39.39,0,0,1,.33-.38,6.17,6.17,0,0,0,4.87-4.72h-3.51a.33.33,0,0,1-.34-.34.35.35,0,0,1,.37-.36c.71,0,2.15,0,3.62,0a12.08,12.08,0,0,0,.16-1.72.39.39,0,0,1,.42-.41.42.42,0,0,1,.44.41,12.55,12.55,0,0,1-.2,1.71h2.91c.95,0,1.55.45,1.55,1.35V106c-.09,2.1-.44,4.52-3.18,4.52a6,6,0,0,1-1.82-.33.38.38,0,0,1-.24-.38.4.4,0,0,1,.38-.43.45.45,0,0,1,.16,0,5,5,0,0,0,1.56.31c.47,0,2.3,0,2.3-3.72,0-.55-.36-.75-.89-.75Zm5-2.7c0-.64-.35-.87-1-.87h-7.71c-.73,0-1,.27-1,.84v1.25a.4.4,0,0,1-.42.39c-.42,0-.42-.24-.42-1.11,0-.29,0-.59,0-.81,0-.6.45-1.22,1.56-1.23,2,0,3.93,0,5.89,0A13.18,13.18,0,0,0,311,98.34a.43.43,0,0,1,.39-.27.5.5,0,0,1,.48.44,12.94,12.94,0,0,1-1.64,2.49h1.56c.95,0,1.55.55,1.56,1.24,0,.18,0,.48,0,.77s0,.55,0,.72a.42.42,0,0,1-.45.4.36.36,0,0,1-.4-.37Zm-7.92-2.26a5.49,5.49,0,0,0-1.46-1.5.26.26,0,0,1-.09-.18.42.42,0,0,1,.42-.36,3.76,3.76,0,0,1,1.85,1.75.48.48,0,0,1-.45.45A.29.29,0,0,1,304.54,100.28Zm3.36,0a.3.3,0,0,1-.29-.2,5.89,5.89,0,0,0-1.24-1.74.25.25,0,0,1-.06-.13.43.43,0,0,1,.43-.35c.47,0,1.62,1.64,1.62,2A.48.48,0,0,1,307.9,100.28Z"/><path class="cls-8" d="M318.23,109.77a.37.37,0,0,1-.37-.39.36.36,0,0,1,.37-.37H323v-5.7l-5.34,0a.39.39,0,0,1,0-.77H323V98.49a.43.43,0,0,1,.85,0v4.08h5.33a.39.39,0,0,1,0,.77l-5.34,0V109h4.75a.35.35,0,0,1,.35.37.36.36,0,0,1-.35.39Z"/><rect class="cls-4" x="179" y="147.68" width="194.99" height="45" rx="6"/><rect class="cls-7" x="179" y="147.68" width="194.99" height="45" rx="6"/><path class="cls-8" d="M230.86,175.23a.34.34,0,0,1-.34-.34.34.34,0,0,1,.34-.36h1.44c0-.31,0-.67,0-1s0-.73,0-1c0-.84.48-1.27,1.5-1.29h6c.94,0,1.43.47,1.45,1.29v2.07h1.45a.33.33,0,0,1,.33.36.33.33,0,0,1-.33.34Zm5.58-5.83a.33.33,0,0,1,.35.33.35.35,0,0,1-.36.34c-.39,0-1.26,0-2.1,0s-1.64,0-1.92,0a1.17,1.17,0,0,1-1.28-1.21c0-.62,0-1.46,0-2.3s0-1.66,0-2.22a1.17,1.17,0,0,1,1.25-1.14h4a.35.35,0,0,1,.36.33.32.32,0,0,1-.36.32l-2,0v1.46h1c1,0,1,.6,1,1.27,0,.84-.06,1.28-1.06,1.29l-.93,0v1.57l2,0Zm-2.73-5.57c-1.56,0-1.8,0-1.83.69,0,.21,0,.47,0,.77h1.84Zm-1.84,3.45h3.3c.55,0,.58-.15.58-.69s-.06-.69-.54-.71h-3.34Zm1.85.59h-1.85c0,.33,0,.63,0,.88,0,.6.17.69,1.84.69Zm1.39,4h-1.22c-.82,0-.84.42-.84,1.84,0,.3,0,.6,0,.87h2Zm2.62,0-1.9,0v2.71h1.9Zm.84-5.85c-.9,2-1.24,2.06-1.41,2.06a.38.38,0,0,1-.39-.35.35.35,0,0,1,.09-.22,11.54,11.54,0,0,0,1.86-4.25.37.37,0,0,1,.38-.28.4.4,0,0,1,.43.37,11.49,11.49,0,0,1-.66,2h3.69a.32.32,0,0,1,.34.34.33.33,0,0,1-.34.36Zm-.54,3.18a.35.35,0,0,1-.35-.34.34.34,0,0,1,.35-.35h4.38a.35.35,0,1,1,0,.69Zm2.44,5.4c0-.51,0-1.12,0-1.62s0-1.09-.81-1.09h-1.23v2.71Z"/><path class="cls-8" d="M320.13,171.33c0,.89,0,1.76-1.45,1.79h-2.74v.11c0,.25,0,.64,0,.93,0,.7-.24,1.41-1.7,1.41s-1.41-.24-1.41-.47a.38.38,0,0,1,.37-.39h.08a5.52,5.52,0,0,0,1,.12c.54,0,.85-.19.85-.87v-.84H311a.32.32,0,0,1,0-.63c1.08,0,2.64,0,4.17,0V171.3h-5.88A.28.28,0,0,1,309,171a.28.28,0,0,1,.28-.3h5.88v-1.08c-1.5,0-3,0-4.18,0a.3.3,0,0,1-.29-.32.3.3,0,0,1,.3-.31h4.17v-.93c-3.93,0-4,0-4-1.2,0-.8.09-1.32,1.38-1.34h2.61v-1l-4.92,0a.33.33,0,0,1-.33-.35.32.32,0,0,1,.33-.33l4.92,0v-1a.36.36,0,0,1,.37-.37.35.35,0,0,1,.38.37v1l4.87,0a.33.33,0,0,1,.35.33.34.34,0,0,1-.35.35l-4.87,0v1h2.64c1.13,0,1.34.41,1.34,1.26s-.08,1.2-1.32,1.25c-.62,0-1.63,0-2.66,0V169h2.76c1.35,0,1.43.75,1.43,1.62h1.62a.35.35,0,0,1,0,.69Zm-4.94-5.23c-1,0-2,0-2.51,0s-.7.21-.7.64c0,.09,0,.18,0,.26,0,.45.18.46,3.19.46Zm.75,1.39c3,0,3.15,0,3.18-.45a1,1,0,0,0,0-.25,1.1,1.1,0,0,0,0-.26c0-.42-.16-.43-3.18-.43Zm3.44,3.2c0-.53-.05-1-.83-1.05s-1.68,0-2.61,0v1.08Zm-3.44.61v1.22c1,0,1.87,0,2.61,0s.83-.66.83-1.2Z"/><rect class="cls-4" x="519.98" y="9.83" width="194.99" height="45" rx="6"/><rect class="cls-9" x="519.98" y="9.83" width="194.99" height="45" rx="6"/><path class="cls-10" d="M568.42,32.44c-.54,1.09-1.6,3.21-3.31,3.21a1.17,1.17,0,0,1-1.25-1.2c0-1.47,2-2.46,4.08-2.69l.17-.31c.57-1.2,1.54-3,2-4a.43.43,0,0,0,0-.15s0-.06-.08-.06a.18.18,0,0,0-.09,0,11.89,11.89,0,0,1-2.35.39c-.32,0-.45-.18-.45-.38a.41.41,0,0,1,.4-.4,19.23,19.23,0,0,0,2.52-.38,1.35,1.35,0,0,1,.33,0c.42,0,.66.22.66.57a1.2,1.2,0,0,1-.18.57c-.73,1.26-1.48,2.8-2.11,4.11a10.42,10.42,0,0,1,4.21.81,4,4,0,0,0,.14-1,2.38,2.38,0,0,0-.32-1.24.31.31,0,0,1,0-.15.4.4,0,0,1,.42-.35c.49,0,.75,1,.75,1.73a5,5,0,0,1-.21,1.33,11.79,11.79,0,0,1,2.37,1.46.6.6,0,0,1,.24.43.46.46,0,0,1-.44.47.52.52,0,0,1-.34-.15,10,10,0,0,0-2.12-1.46A6.61,6.61,0,0,1,570.09,37a.33.33,0,0,1-.36-.33.48.48,0,0,1,.28-.42,6.82,6.82,0,0,0,2.7-3,10.49,10.49,0,0,0-3.84-.82Zm-3.78,1.92a.54.54,0,0,0,.59.51c1.12,0,2-1.76,2.35-2.37C566,32.74,564.64,33.52,564.64,34.36Z"/><path class="cls-10" d="M585.13,37.61a.45.45,0,0,1-.49-.42c0-.19.13-.39.46-.45a7.72,7.72,0,0,0,2.16-.7c1.49-.87,2.13-1.86,2.13-2.64s-.78-1.25-1.62-1.25A7.6,7.6,0,0,0,583.56,34a1.21,1.21,0,0,1-.75.38c-.42,0-.69-.36-.69-1.49a15.62,15.62,0,0,1,.13-1.77c.12-1,.32-1.95.42-2.61a.42.42,0,0,1,.42-.36.34.34,0,0,1,.36.35v.07c-.09.65-.27,1.53-.39,2.27a12.75,12.75,0,0,0-.18,1.72c0,.24,0,.68.18.68a.79.79,0,0,0,.33-.17,9,9,0,0,1,4.43-1.66c1.53,0,2.44.84,2.44,2s-.75,2.27-2.44,3.3A7.74,7.74,0,0,1,585.13,37.61Zm.11-9.69a.51.51,0,0,1-.17,0,.38.38,0,0,1-.39-.37.26.26,0,0,1,.18-.27c.39-.15.57-.26.57-.38s-.15-.21-.43-.39c-1.08-.69-1.16-.73-1.16-1a.36.36,0,0,1,.39-.35.61.61,0,0,1,.33.12c.29.21.72.48,1.08.69s1,.6,1,1S586.47,27.56,585.24,27.92Z"/><path class="cls-10" d="M600.69,33a.48.48,0,0,1,.45.45c0,.09-.69,2.29-2.06,2.29-.76,0-2.58-.94-2.85-5.26,0-.66-.06-1-.06-1.32s0-.8.44-.8.43.3.43,1.17c0,4.34,1.58,5.27,2,5.27.18,0,.69-.08,1.24-1.52A.43.43,0,0,1,600.69,33Zm5.56-.35a4.89,4.89,0,0,0-1.84-3.09.35.35,0,0,1-.17-.31.38.38,0,0,1,.39-.38c.66,0,2.54,2.28,2.54,3.59a.54.54,0,0,1-.51.57A.41.41,0,0,1,606.25,32.66Z"/><path class="cls-10" d="M618.34,37.21a23.19,23.19,0,0,0-3.28-5,2,2,0,0,1,.16-3.06,25.22,25.22,0,0,0,3.2-3.5.5.5,0,0,1,.42-.25.49.49,0,0,1,.48.48.52.52,0,0,1-.12.33,42,42,0,0,1-3.36,3.45,1.54,1.54,0,0,0-.6,1.05,1.65,1.65,0,0,0,.45,1,29.53,29.53,0,0,1,3.54,5,.77.77,0,0,1,.07.28.55.55,0,0,1-.52.53A.46.46,0,0,1,618.34,37.21Z"/><path class="cls-10" d="M628.44,37.51l.21-8.19c-.38.51-1.68,2.22-2.19,2.22a.38.38,0,0,1-.39-.39.4.4,0,0,1,.15-.32,15.1,15.1,0,0,0,3.87-5.52.37.37,0,0,1,.36-.25.49.49,0,0,1,.48.43,12.71,12.71,0,0,1-1.49,2.7l-.16,9.32a.41.41,0,0,1-.44.36.36.36,0,0,1-.4-.35Zm6.87-5.13a13.07,13.07,0,0,0,4,3.48.42.42,0,0,1,.24.37.44.44,0,0,1-.44.44c-.43,0-2.5-1.56-4-3.66,0,1.06,0,4.42,0,4.42a.36.36,0,0,1-.39.36.37.37,0,0,1-.41-.37s.05-3.36.06-4.43c-1.54,2.49-3.6,3.93-4,3.93a.41.41,0,0,1-.4-.39.37.37,0,0,1,.19-.31,11.34,11.34,0,0,0,3.86-3.84l-3.21,0a.35.35,0,1,1,0-.69h3.49l0-1.11h0a.36.36,0,0,1,.39-.35.38.38,0,0,1,.41.36l0,1.11h3.71a.33.33,0,0,1,.34.34.34.34,0,0,1-.34.35Zm1.11-2.24c-.51,0-1,.05-1.53.05-2.91,0-3.2,0-3.2-2.12,0-.46,0-.94,0-1.3a1.28,1.28,0,0,1,1.35-1.25l1.71,0c.56,0,1.11,0,1.65,0a1.29,1.29,0,0,1,1.4,1.19c0,.36,0,.78,0,1.23,0,.3,0,.61,0,.91C637.83,29.59,637.33,30.08,636.42,30.14Zm.63-3.21c0-.73-.44-.75-2.09-.75-.54,0-1.08,0-1.62,0s-.87.31-.88.76c0,.29,0,.66,0,1,0,1.55,0,1.55,2.31,1.55s2.34-.08,2.34-1.31C637.08,27.79,637.06,27.29,637.05,26.93Z"/><path class="cls-10" d="M647.73,27.17h-.08a18.68,18.68,0,0,1-.84,1.86q2.41-.13,4.68-.45a9.79,9.79,0,0,0-1-.55.28.28,0,0,1-.18-.24.38.38,0,0,1,.4-.33c.48,0,3,1.66,3,2.29a.38.38,0,0,1-.39.39A.44.44,0,0,1,653,30a5.45,5.45,0,0,0-.86-.87,68.46,68.46,0,0,1-8.19.82.38.38,0,1,1,0-.75c.69,0,1.4,0,2.07-.07.23-.48.59-1.38.77-1.91l-3.71,0a.36.36,0,0,1,0-.71l5.16,0V25.15a.42.42,0,0,1,.83,0l0,1.35,5.31,0a.36.36,0,0,1,0,.71ZM652.41,36v.07c0,.75-.23,1.74-2,1.74-1.36,0-1.5-.24-1.5-.49a.36.36,0,0,1,.36-.38h.08a6.35,6.35,0,0,0,1.12.11c.81,0,1.16-.29,1.17-1.11,0-.26,0-.54,0-.87h-5.87c0,.91,0,1.83,0,2.49a.39.39,0,0,1-.41.39.37.37,0,0,1-.39-.38c0-1.93,0-4.24.09-5.7,0-.55.45-1.18,1.61-1.21.72,0,1.48,0,2.25,0s1.27,0,1.9,0c1.23,0,1.53.69,1.56,1.24,0,.71,0,2.13,0,2.73Zm-.78-2.85h-5.85c0,.4,0,.87,0,1.32h5.87Zm0-.6c0-.18,0-.33,0-.45,0-.45-.27-.78-1-.81-.52,0-1.12,0-1.72,0s-1.44,0-2.06,0-1,.39-1,.81v.45Z"/><path class="cls-10" d="M658.54,35.62c0-1.11,0-2.4,0-3.74,0-1.68,0-3.43,0-4.95a1.67,1.67,0,0,1,1.82-1.54c1.27,0,2.62,0,4,0s2.77,0,4.17,0a1.69,1.69,0,0,1,1.74,1.66c0,1.5,0,3.18,0,4.83,0,1.31,0,2.57,0,3.69a1.76,1.76,0,0,1-1.77,1.76c-1.26,0-2.64.06-4,.06s-2.75,0-4-.06S658.57,36.62,658.54,35.62Zm11-4.07c0-1.5,0-3,0-4.24a1.14,1.14,0,0,0-1.29-1.25c-1,0-2.25,0-3.45,0-1.45,0-2.91,0-4.08,0-.91,0-1.33.47-1.35,1.25,0,1.3,0,2.83,0,4.33,0,1.34,0,2.66,0,3.74,0,.85.48,1.23,1.5,1.26s2.28,0,3.53,0,2.56,0,3.79,0a1.22,1.22,0,0,0,1.35-1.31C669.49,34.21,669.51,32.89,669.51,31.55Zm-5.9,1.89a8.32,8.32,0,0,1-3.13,1.91.34.34,0,0,1-.35-.35.32.32,0,0,1,.21-.31,8.84,8.84,0,0,0,3.11-1.82c-2,0-2.24-.16-2.24-1,0-1.29,0-1.34,3-1.34s3.07,0,3.07,1.25c0,1-.33,1.09-2.77,1.09A6.15,6.15,0,0,0,665.8,34a15.84,15.84,0,0,0,1.67-1,.26.26,0,0,1,.18-.06.36.36,0,0,1,.37.33c0,.16-.16.37-1.65,1.06a7.91,7.91,0,0,0,1.83.71.27.27,0,0,1,.23.27.4.4,0,0,1-.39.39,7.28,7.28,0,0,1-3.75-2.34v2.4a.32.32,0,0,1-.34.3.33.33,0,0,1-.36-.3Zm-3.09-3.7a.3.3,0,0,1,0-.6H664v-1h-2.7a.28.28,0,0,1-.28-.31.28.28,0,0,1,.28-.3H664v-.76a.35.35,0,0,1,.37-.36.36.36,0,0,1,.39.36v.76h2.76a.31.31,0,0,1,0,.61h-2.76v1h3.51a.3.3,0,0,1,0,.6ZM664,31.1c-2,0-2,0-2.06.35v.48c0,.4.18.4,2.34.4,2.33,0,2.33,0,2.33-.61a1,1,0,0,0,0-.26C666.55,31.1,666.39,31.1,664,31.1Z"/><rect class="cls-4" x="520.79" y="399.83" width="194.99" height="45" rx="6"/><rect class="cls-9" x="520.79" y="399.83" width="194.99" height="45" rx="6"/><path class="cls-10" d="M554.49,423.08c-1.23,0-2.44,0-3.61-.09a1.45,1.45,0,0,1-1.56-1.38c0-.43,0-.87,0-1.3s0-.86,0-1.23a1.48,1.48,0,0,1,1.53-1.4c1.14,0,2.38,0,3.64,0l0-2.46a.42.42,0,0,1,.83,0v2.46c1.27,0,2.56,0,3.75,0a1.44,1.44,0,0,1,1.45,1.29c0,.39,0,.84,0,1.29s0,.92,0,1.34a1.51,1.51,0,0,1-1.55,1.39c-1.19.06-2.44.09-3.65.09v4.4a.42.42,0,0,1-.83,0Zm0-4.71c-1.23,0-2.41,0-3.33.05a1,1,0,0,0-1.06,1c0,.25,0,.6,0,1,0,1.44.06,1.87,1.1,1.92s2.11.07,3.31.07Zm.8,4c1.17,0,2.34,0,3.35-.07a1,1,0,0,0,1.05-1c0-.32,0-.72,0-1.13,0-1.18,0-1.71-1.08-1.75s-2.13-.05-3.34-.05Z"/><path class="cls-10" d="M567.83,423.49v2c.93-.21,1.81-.46,2.53-.69h.07a.33.33,0,0,1,.29.34.32.32,0,0,1-.22.32,39.6,39.6,0,0,1-6,1.38.34.34,0,0,1-.35-.36.37.37,0,0,1,.32-.38c.85-.1,1.75-.27,2.64-.45v-2.11l-2.3,0a.33.33,0,0,1-.33-.33.32.32,0,0,1,.33-.33l2.3,0v-1.68c-1.28,0-2.39,0-2.43-1.3,0-.48,0-1,0-1.58s0-1.11,0-1.59a1.35,1.35,0,0,1,1.45-1.33c.42,0,.84,0,1.28,0s1,0,1.51,0a1.29,1.29,0,0,1,1.39,1.24c0,.68.05,1.41.05,2.1,0,2-.07,2.46-2.53,2.46v1.68l2.27,0a.32.32,0,0,1,.32.33.31.31,0,0,1-.32.33Zm-.72-7.52c-.29,0-.57,0-.83,0a.84.84,0,0,0-.91.82c0,.33,0,.69,0,1.08h1.76Zm0,2.52h-1.76c0,.42,0,.84,0,1.23,0,.77.7.81,1.74.81Zm2.55-.6c0-.4,0-.81,0-1.12,0-.8-.61-.81-1.81-.81v1.93Zm-1.83.6v2c1,0,1.8,0,1.81-.82,0-.35,0-.78,0-1.22Zm5.65,2.13-2.46,0a.32.32,0,0,1-.33-.33A.33.33,0,0,1,571,420h5.2c.7,0,1,.27,1,.77s-1.15,2.65-1.74,2.65a.38.38,0,0,1-.4-.34.21.21,0,0,1,.08-.18,6.25,6.25,0,0,0,1.26-2c0-.15-.12-.23-.42-.23h-1.82v3.32l.06,2.07v.1c0,.84-.32,1.55-1.65,1.55-.6,0-1.3,0-1.3-.5a.35.35,0,0,1,.35-.37h.08a5.07,5.07,0,0,0,.91.12c.54,0,.82-.23.82-.93Zm-2.14-4.33a.32.32,0,0,1-.32-.35.36.36,0,0,1,.35-.37c1.51,0,2.65,0,4.1,0,.68,0,1,.33,1,.73a1.15,1.15,0,0,1-.41.81,14.32,14.32,0,0,1-1.9,1.53c.12.09.54.42.54.68a.41.41,0,0,1-.38.42.36.36,0,0,1-.26-.14,6.36,6.36,0,0,0-1.87-1.35.23.23,0,0,1-.13-.22.39.39,0,0,1,.37-.36,3.83,3.83,0,0,1,1.13.55c.39-.22,2-1.41,2-1.78,0-.14-.14-.21-.36-.21-1.05,0-2.58,0-3.87.09Z"/><path class="cls-10" d="M585,422.44c-.54,1.09-1.61,3.21-3.32,3.21a1.17,1.17,0,0,1-1.24-1.2c0-1.47,2-2.46,4.08-2.69l.16-.31c.57-1.2,1.55-3,2-4a.37.37,0,0,0,0-.15s0-.06-.08-.06a.15.15,0,0,0-.08,0,11.93,11.93,0,0,1-2.36.39c-.31,0-.45-.18-.45-.38a.41.41,0,0,1,.41-.4,19.48,19.48,0,0,0,2.52-.38,1.29,1.29,0,0,1,.33,0c.42,0,.66.22.66.57a1.23,1.23,0,0,1-.19.57c-.73,1.26-1.48,2.8-2.11,4.11a10.47,10.47,0,0,1,4.22.81,4,4,0,0,0,.13-1,2.29,2.29,0,0,0-.32-1.24.48.48,0,0,1,0-.15.41.41,0,0,1,.42-.35c.49,0,.75,1,.75,1.73a4.6,4.6,0,0,1-.21,1.33,11.79,11.79,0,0,1,2.37,1.46.6.6,0,0,1,.24.43.46.46,0,0,1-.43.47.54.54,0,0,1-.35-.15,9.9,9.9,0,0,0-2.11-1.46,6.62,6.62,0,0,1-3.35,3.44.33.33,0,0,1-.36-.33.5.5,0,0,1,.29-.42,6.85,6.85,0,0,0,2.69-3,10.4,10.4,0,0,0-3.84-.82Zm-3.78,1.92a.53.53,0,0,0,.58.51c1.13,0,2.06-1.76,2.35-2.37C582.59,422.74,581.21,423.52,581.21,424.36Z"/><path class="cls-10" d="M601.7,427.61a.45.45,0,0,1-.5-.42c0-.19.14-.39.47-.45a7.94,7.94,0,0,0,2.16-.7c1.48-.87,2.13-1.86,2.13-2.64s-.78-1.25-1.62-1.25a7.64,7.64,0,0,0-4.22,1.86,1.19,1.19,0,0,1-.75.38c-.42,0-.69-.36-.69-1.49a15.51,15.51,0,0,1,.14-1.77c.11-1,.31-1.95.42-2.61a.41.41,0,0,1,.42-.36.34.34,0,0,1,.36.35v.07c-.09.65-.27,1.53-.39,2.27a12.75,12.75,0,0,0-.18,1.72c0,.24,0,.68.18.68a.93.93,0,0,0,.33-.17,9,9,0,0,1,4.42-1.66c1.53,0,2.44.84,2.44,2s-.75,2.27-2.44,3.3A7.7,7.7,0,0,1,601.7,427.61Zm.1-9.69a.45.45,0,0,1-.16,0,.37.37,0,0,1-.39-.37.25.25,0,0,1,.18-.27c.38-.15.57-.26.57-.38s-.15-.21-.44-.39c-1.08-.69-1.15-.73-1.15-1a.36.36,0,0,1,.39-.35.67.67,0,0,1,.33.12,12.7,12.7,0,0,0,1.08.69c.43.27,1,.6,1,1S603,417.56,601.8,417.92Z"/><path class="cls-10" d="M617.25,423a.48.48,0,0,1,.45.45c0,.09-.69,2.29-2.06,2.29-.76,0-2.57-.94-2.84-5.26,0-.66-.06-1-.06-1.32s0-.8.43-.8.44.3.44,1.17c0,4.34,1.57,5.27,2,5.27.18,0,.69-.08,1.25-1.52A.41.41,0,0,1,617.25,423Zm5.56-.35a4.84,4.84,0,0,0-1.84-3.09.34.34,0,0,1-.16-.31.37.37,0,0,1,.38-.38c.66,0,2.54,2.28,2.54,3.59a.54.54,0,0,1-.51.57A.41.41,0,0,1,622.81,422.66Z"/><path class="cls-10" d="M634.91,427.21a23.6,23.6,0,0,0-3.29-5,2,2,0,0,1,.17-3.06,25.78,25.78,0,0,0,3.19-3.5.5.5,0,0,1,.42-.25.49.49,0,0,1,.48.48.52.52,0,0,1-.12.33,42,42,0,0,1-3.36,3.45,1.58,1.58,0,0,0-.6,1.05,1.72,1.72,0,0,0,.45,1,29.53,29.53,0,0,1,3.54,5,.63.63,0,0,1,.08.28.55.55,0,0,1-.53.53A.45.45,0,0,1,634.91,427.21Z"/><path class="cls-10" d="M645,427.51l.21-8.19c-.37.51-1.68,2.22-2.19,2.22a.39.39,0,0,1-.39-.39.44.44,0,0,1,.15-.32,15,15,0,0,0,3.87-5.52.37.37,0,0,1,.36-.25.48.48,0,0,1,.48.43,12.4,12.4,0,0,1-1.48,2.7l-.17,9.32a.39.39,0,0,1-.43.36.36.36,0,0,1-.41-.35Zm6.87-5.13a13.07,13.07,0,0,0,4,3.48.42.42,0,0,1,.24.37.44.44,0,0,1-.43.44c-.44,0-2.51-1.56-4-3.66,0,1.06,0,4.42,0,4.42a.36.36,0,0,1-.39.36.36.36,0,0,1-.4-.37s0-3.36.06-4.43c-1.55,2.49-3.6,3.93-4,3.93a.41.41,0,0,1-.41-.39.36.36,0,0,1,.2-.31,11.31,11.31,0,0,0,3.85-3.84l-3.21,0a.35.35,0,1,1,0-.69h3.49l0-1.11h0a.36.36,0,0,1,.39-.35.37.37,0,0,1,.4.36l0,1.11h3.71a.33.33,0,0,1,.34.34.34.34,0,0,1-.34.35Zm1.11-2.24c-.51,0-1,.05-1.53.05-2.91,0-3.19,0-3.19-2.12,0-.46,0-.94,0-1.3a1.27,1.27,0,0,1,1.35-1.25l1.71,0,1.65,0a1.29,1.29,0,0,1,1.39,1.19c0,.36,0,.78,0,1.23s0,.61,0,.91C654.39,419.59,653.89,420.08,653,420.14Zm.63-3.21c-.05-.73-.43-.75-2.09-.75-.54,0-1.08,0-1.61,0s-.87.31-.89.76c0,.29,0,.66,0,1,0,1.55,0,1.55,2.31,1.55s2.34-.08,2.34-1.31C653.64,417.79,653.63,417.29,653.61,416.93Z"/><path class="cls-10" d="M664.29,417.17h-.07c-.16.41-.56,1.32-.84,1.86q2.4-.13,4.68-.45a11.18,11.18,0,0,0-1-.55.28.28,0,0,1-.18-.24.38.38,0,0,1,.41-.33c.48,0,3,1.66,3,2.29a.39.39,0,0,1-.4.39.44.44,0,0,1-.37-.19,5.84,5.84,0,0,0-.85-.87,68.64,68.64,0,0,1-8.19.82.38.38,0,1,1,0-.75c.68,0,1.39,0,2.07-.07.22-.48.58-1.38.76-1.91l-3.7,0a.36.36,0,0,1,0-.71l5.16,0v-1.35a.38.38,0,0,1,.42-.36.37.37,0,0,1,.4.36v1.35l5.3,0a.36.36,0,0,1,0,.71ZM669,426v.07c0,.75-.22,1.74-2,1.74-1.36,0-1.49-.24-1.49-.49a.36.36,0,0,1,.36-.38h.07A6.37,6.37,0,0,0,667,427c.8,0,1.15-.29,1.17-1.11,0-.26,0-.54,0-.87h-5.86c0,.91,0,1.83,0,2.49a.39.39,0,0,1-.4.39.36.36,0,0,1-.39-.38c0-1.93,0-4.24.09-5.7,0-.55.45-1.18,1.6-1.21.72,0,1.49,0,2.25,0s1.27,0,1.91,0c1.23,0,1.52.69,1.56,1.24,0,.71,0,2.13,0,2.73Zm-.78-2.85h-5.85c0,.4,0,.87,0,1.32h5.86Zm0-.6c0-.18,0-.33,0-.45,0-.45-.27-.78-1-.81-.52,0-1.12,0-1.72,0s-1.44,0-2,0-1,.39-1,.81v.45Z"/><path class="cls-10" d="M675.11,425.62c0-1.11-.05-2.4-.05-3.74,0-1.68,0-3.43.05-4.95a1.65,1.65,0,0,1,1.81-1.54c1.28,0,2.63,0,4,0s2.77,0,4.17,0a1.68,1.68,0,0,1,1.74,1.66c0,1.5,0,3.18,0,4.83,0,1.31,0,2.57,0,3.69a1.75,1.75,0,0,1-1.77,1.76c-1.26,0-2.64.06-4,.06s-2.74,0-4-.06S675.14,426.62,675.11,425.62Zm11-4.07c0-1.5,0-3-.05-4.24a1.14,1.14,0,0,0-1.29-1.25c-1.05,0-2.25,0-3.44,0-1.46,0-2.91,0-4.08,0-.92,0-1.34.47-1.35,1.25,0,1.3-.05,2.83-.05,4.33,0,1.34,0,2.66.05,3.74,0,.85.48,1.23,1.5,1.26s2.28,0,3.52,0,2.56,0,3.8,0a1.21,1.21,0,0,0,1.34-1.31C686.06,424.21,686.07,422.89,686.07,421.55Zm-5.89,1.89a8.4,8.4,0,0,1-3.14,1.91.34.34,0,0,1-.34-.35.32.32,0,0,1,.21-.31,8.8,8.8,0,0,0,3.1-1.82c-2,0-2.23-.16-2.23-1,0-1.29,0-1.34,3-1.34s3.07,0,3.07,1.25c0,1.05-.33,1.09-2.77,1.09a6.21,6.21,0,0,0,1.25,1.1,15.74,15.74,0,0,0,1.66-1,.26.26,0,0,1,.18-.06.37.37,0,0,1,.38.33c0,.16-.17.37-1.66,1.06a7.81,7.81,0,0,0,1.84.71.27.27,0,0,1,.22.27.4.4,0,0,1-.39.39,7.32,7.32,0,0,1-3.75-2.34l0,2.4a.36.36,0,0,1-.71,0Zm-3.09-3.7a.3.3,0,0,1,0-.6h3.45v-1h-2.7a.28.28,0,0,1-.29-.31.28.28,0,0,1,.29-.3h2.68v-.76a.36.36,0,0,1,.37-.36.37.37,0,0,1,.4.36l0,.76H684a.31.31,0,0,1,0,.61h-2.76v1h3.51a.3.3,0,0,1,0,.6Zm3.46,1.36c-2,0-2,0-2,.35v.48c0,.4.18.4,2.34.4,2.32,0,2.32,0,2.32-.61a1,1,0,0,0,0-.26C683.12,421.1,683,421.1,680.55,421.1Z"/><rect class="cls-4" x="519.98" y="74.83" width="194.99" height="45" rx="6"/><rect class="cls-9" x="519.98" y="74.83" width="194.99" height="45" rx="6"/><path class="cls-10" d="M568.42,97.44c-.54,1.09-1.6,3.21-3.31,3.21a1.17,1.17,0,0,1-1.25-1.2c0-1.47,2-2.46,4.08-2.69l.17-.31c.57-1.2,1.54-3,2-4a.43.43,0,0,0,0-.15s0-.06-.08-.06a.18.18,0,0,0-.09,0,11.89,11.89,0,0,1-2.35.39c-.32,0-.45-.18-.45-.38a.41.41,0,0,1,.4-.4,19.23,19.23,0,0,0,2.52-.38,1.35,1.35,0,0,1,.33,0c.42,0,.66.22.66.57a1.2,1.2,0,0,1-.18.57c-.73,1.26-1.48,2.8-2.11,4.11a10.42,10.42,0,0,1,4.21.81,4,4,0,0,0,.14-1,2.38,2.38,0,0,0-.32-1.24.31.31,0,0,1,0-.15.4.4,0,0,1,.42-.35c.49,0,.75,1,.75,1.73a5,5,0,0,1-.21,1.33,11.79,11.79,0,0,1,2.37,1.46.6.6,0,0,1,.24.43.46.46,0,0,1-.44.47.52.52,0,0,1-.34-.15,10,10,0,0,0-2.12-1.46,6.61,6.61,0,0,1-3.34,3.44.33.33,0,0,1-.36-.33.48.48,0,0,1,.28-.42,6.82,6.82,0,0,0,2.7-3,10.49,10.49,0,0,0-3.84-.82Zm-3.78,1.92a.54.54,0,0,0,.59.51c1.12,0,2-1.76,2.35-2.37C566,97.74,564.64,98.52,564.64,99.36Z"/><path class="cls-10" d="M585.13,102.61a.45.45,0,0,1-.49-.42c0-.19.13-.39.46-.45a7.72,7.72,0,0,0,2.16-.7c1.49-.87,2.13-1.86,2.13-2.64s-.78-1.25-1.62-1.25A7.6,7.6,0,0,0,583.56,99a1.21,1.21,0,0,1-.75.38c-.42,0-.69-.36-.69-1.49a15.62,15.62,0,0,1,.13-1.77c.12-1,.32-1.95.42-2.61a.42.42,0,0,1,.42-.36.34.34,0,0,1,.36.35v.07c-.09.65-.27,1.53-.39,2.27a12.75,12.75,0,0,0-.18,1.72c0,.24,0,.68.18.68a.79.79,0,0,0,.33-.17,9,9,0,0,1,4.43-1.66c1.53,0,2.44.84,2.44,2s-.75,2.27-2.44,3.3A7.74,7.74,0,0,1,585.13,102.61Zm.11-9.69a.51.51,0,0,1-.17,0,.38.38,0,0,1-.39-.37.26.26,0,0,1,.18-.27c.39-.15.57-.26.57-.38s-.15-.21-.43-.39c-1.08-.69-1.16-.73-1.16-1a.36.36,0,0,1,.39-.35.61.61,0,0,1,.33.12c.29.21.72.48,1.08.69s1,.6,1,1S586.47,92.56,585.24,92.92Z"/><path class="cls-10" d="M600.69,98a.48.48,0,0,1,.45.45c0,.09-.69,2.29-2.06,2.29-.76,0-2.58-.94-2.85-5.26,0-.66-.06-1-.06-1.32s0-.8.44-.8.43.3.43,1.17c0,4.34,1.58,5.27,2,5.27.18,0,.69-.08,1.24-1.52A.43.43,0,0,1,600.69,98Zm5.56-.35a4.89,4.89,0,0,0-1.84-3.09.35.35,0,0,1-.17-.31.38.38,0,0,1,.39-.38c.66,0,2.54,2.28,2.54,3.59a.54.54,0,0,1-.51.57A.41.41,0,0,1,606.25,97.66Z"/><path class="cls-10" d="M618.34,102.21a23.19,23.19,0,0,0-3.28-5,2,2,0,0,1,.16-3.06,25.22,25.22,0,0,0,3.2-3.5.5.5,0,0,1,.42-.25.49.49,0,0,1,.48.48.52.52,0,0,1-.12.33,42,42,0,0,1-3.36,3.45,1.54,1.54,0,0,0-.6,1,1.65,1.65,0,0,0,.45,1,29.53,29.53,0,0,1,3.54,5,.77.77,0,0,1,.07.28.55.55,0,0,1-.52.53A.46.46,0,0,1,618.34,102.21Z"/><path class="cls-10" d="M627,99a.45.45,0,0,1-.45-.42.46.46,0,0,1,.15-.33,9.61,9.61,0,0,0,2.52-4,.36.36,0,0,1,.36-.25.45.45,0,0,1,.48.42,11.51,11.51,0,0,1-2.68,4.42A.54.54,0,0,1,627,99Zm5.63-8.15a.43.43,0,1,1,.85,0v8.07l0,1.68v0c0,.92-.55,1.88-2.34,1.88a7.33,7.33,0,0,1-1.42-.17.44.44,0,0,1-.39-.42.43.43,0,0,1,.4-.45.22.22,0,0,1,.11,0,7.18,7.18,0,0,0,1.36.18c.84,0,1.4-.32,1.4-1.17Zm5.82,7.29a14.4,14.4,0,0,0-2.81-3.6.3.3,0,0,1-.12-.25.38.38,0,0,1,.41-.36c.66,0,3.42,3.43,3.42,4a.5.5,0,0,1-.48.49A.48.48,0,0,1,638.4,98.14Z"/><path class="cls-10" d="M648.79,96.1h-1.9a.75.75,0,0,0-.84.84c0,.44,0,1.53,0,2.54,0,.72,0,1.39,0,1.77h0a.35.35,0,0,1-.37.36.38.38,0,0,1-.41-.39c0-.36,0-1,0-1.75,0-1,0-2.18,0-2.72v-.07c-.87,1-2,2.08-2.39,2.08a.4.4,0,0,1-.4-.39.41.41,0,0,1,.21-.34,13.53,13.53,0,0,0,4.21-5.18l-3.94,0a.36.36,0,0,1-.38-.38.35.35,0,0,1,.38-.36l4.26,0a16.83,16.83,0,0,0,.76-2.07.39.39,0,0,1,.38-.3.46.46,0,0,1,.48.39,14.09,14.09,0,0,1-.77,2l6.24,0a.35.35,0,0,1,.38.36.36.36,0,0,1-.38.38l-6.57,0a18.92,18.92,0,0,1-1.56,2.64,2.67,2.67,0,0,1,.6-.07h2V94.17a.36.36,0,0,1,.39-.36.36.36,0,0,1,.39.36v1.24c.81,0,1.62,0,2.34,0a1.27,1.27,0,0,1,1.42,1.36v2.15c0,.36,0,.67,0,.9a1.44,1.44,0,0,1-1.65,1.59c-1.25,0-1.26-.29-1.26-.5s.1-.37.28-.37h.06a5.39,5.39,0,0,0,.87.1c.62,0,.9-.24.9-.84v0c0-.12,0-2.37,0-2.88s-.15-.81-.72-.81h-2.25v6.23a.38.38,0,0,1-.4.4.39.39,0,0,1-.41-.4Z"/><path class="cls-10" d="M660.72,92.94h-.08c0,.61,0,1.26-.09,1.92.39,0,.78,0,1.08,0A1,1,0,0,1,662.77,96v0c-.1,3.31-.24,6.22-2.38,6.22-.27,0-1.19,0-1.19-.55a.36.36,0,0,1,.33-.38.49.49,0,0,1,.18.05,1.81,1.81,0,0,0,.68.16c.78,0,1.62-.57,1.66-5.32,0-.47-.16-.69-.67-.71h-.89c-.25,2.6-.85,5.3-2.23,6.89a.45.45,0,0,1-.35.16.39.39,0,0,1-.42-.34.37.37,0,0,1,.09-.23c1.88-2.31,2.27-6.06,2.31-9h-1.56a.35.35,0,0,1-.36-.36.34.34,0,0,1,.36-.34h2V90.21a.4.4,0,0,1,.79,0v2.05H663a.33.33,0,0,1,.35.34A.34.34,0,0,1,663,93Zm4.21-.26a9.87,9.87,0,0,1-1.14,1.7.55.55,0,0,1-.39.19.35.35,0,0,1-.37-.34.47.47,0,0,1,.15-.33,10,10,0,0,0,2-3.77.38.38,0,0,1,.37-.28.42.42,0,0,1,.44.39,6.34,6.34,0,0,1-.74,1.75l4.94,0a.33.33,0,0,1,.33.35.35.35,0,0,1-.35.37Zm1.91,3.6-1.55.8c0,1.38,0,2.73,0,3.69s.69,1,2,1c2.41,0,2.89-.21,2.89-1.8a.36.36,0,0,1,.38-.39c.15,0,.43.07.43.49,0,2.34-1.63,2.4-3.63,2.4-1.48,0-2.74,0-2.74-1.57V97.45c-1,.53-1,.53-1.1.53a.36.36,0,0,1-.33-.36c0-.21.06-.23,1.43-.92V94.77a.35.35,0,0,1,.37-.36.35.35,0,0,1,.38.33l0,1.6,1.55-.78V93.84a.37.37,0,0,1,.73,0v1.35c.93-.47,1.19-.6,1.5-.6.9,0,.95.91.95,1.72,0,2.6-.3,3.3-1.46,3.3-.48,0-.78-.06-.78-.42,0-.19.11-.39.29-.39l.07,0a3.18,3.18,0,0,0,.48.09c.36,0,.66-.26.66-2.4,0-1.13-.12-1.22-.34-1.22s-.12,0-1.37.62v4.27a.37.37,0,0,1-.73,0Z"/><rect class="cls-4" x="519.98" y="269.83" width="194.99" height="45" rx="6"/><rect class="cls-9" x="519.98" y="269.83" width="194.99" height="45" rx="6"/><path class="cls-10" d="M568.42,292.44c-.54,1.09-1.6,3.21-3.31,3.21a1.17,1.17,0,0,1-1.25-1.2c0-1.47,2-2.46,4.08-2.69l.17-.31c.57-1.2,1.54-3,2-4a.43.43,0,0,0,0-.15s0-.06-.08-.06a.18.18,0,0,0-.09,0,11.89,11.89,0,0,1-2.35.39c-.32,0-.45-.18-.45-.38a.41.41,0,0,1,.4-.4,19.23,19.23,0,0,0,2.52-.38,1.35,1.35,0,0,1,.33,0c.42,0,.66.22.66.57a1.2,1.2,0,0,1-.18.57c-.73,1.26-1.48,2.8-2.11,4.11a10.42,10.42,0,0,1,4.21.81,4,4,0,0,0,.14-1,2.38,2.38,0,0,0-.32-1.24.31.31,0,0,1,0-.15.4.4,0,0,1,.42-.35c.49,0,.75,1,.75,1.73a5,5,0,0,1-.21,1.33,11.79,11.79,0,0,1,2.37,1.46.6.6,0,0,1,.24.43.46.46,0,0,1-.44.47.52.52,0,0,1-.34-.15,10,10,0,0,0-2.12-1.46,6.61,6.61,0,0,1-3.34,3.44.33.33,0,0,1-.36-.33.48.48,0,0,1,.28-.42,6.82,6.82,0,0,0,2.7-3,10.49,10.49,0,0,0-3.84-.82Zm-3.78,1.92a.54.54,0,0,0,.59.51c1.12,0,2-1.76,2.35-2.37C566,292.74,564.64,293.52,564.64,294.36Z"/><path class="cls-10" d="M585.13,297.61a.45.45,0,0,1-.49-.42c0-.19.13-.39.46-.45a7.72,7.72,0,0,0,2.16-.7c1.49-.87,2.13-1.86,2.13-2.64s-.78-1.25-1.62-1.25a7.6,7.6,0,0,0-4.21,1.86,1.21,1.21,0,0,1-.75.38c-.42,0-.69-.36-.69-1.49a15.62,15.62,0,0,1,.13-1.77c.12-1,.32-1.95.42-2.61a.42.42,0,0,1,.42-.36.34.34,0,0,1,.36.35v.07c-.09.65-.27,1.53-.39,2.27a12.75,12.75,0,0,0-.18,1.72c0,.24,0,.68.18.68a.79.79,0,0,0,.33-.17,9,9,0,0,1,4.43-1.66c1.53,0,2.44.84,2.44,2s-.75,2.27-2.44,3.3A7.74,7.74,0,0,1,585.13,297.61Zm.11-9.69a.51.51,0,0,1-.17,0,.38.38,0,0,1-.39-.37.26.26,0,0,1,.18-.27c.39-.15.57-.26.57-.38s-.15-.21-.43-.39c-1.08-.69-1.16-.73-1.16-1a.36.36,0,0,1,.39-.35.61.61,0,0,1,.33.12c.29.21.72.48,1.08.69s1,.6,1,1S586.47,287.56,585.24,287.92Z"/><path class="cls-10" d="M600.69,293a.48.48,0,0,1,.45.45c0,.09-.69,2.29-2.06,2.29-.76,0-2.58-.94-2.85-5.26,0-.66-.06-1-.06-1.32s0-.8.44-.8.43.3.43,1.17c0,4.34,1.58,5.27,2,5.27.18,0,.69-.08,1.24-1.52A.43.43,0,0,1,600.69,293Zm5.56-.35a4.89,4.89,0,0,0-1.84-3.09.35.35,0,0,1-.17-.31.38.38,0,0,1,.39-.38c.66,0,2.54,2.28,2.54,3.59a.54.54,0,0,1-.51.57A.41.41,0,0,1,606.25,292.66Z"/><path class="cls-10" d="M618.34,297.21a23.19,23.19,0,0,0-3.28-5,2,2,0,0,1,.16-3.06,25.22,25.22,0,0,0,3.2-3.5.5.5,0,0,1,.42-.25.49.49,0,0,1,.48.48.52.52,0,0,1-.12.33,42,42,0,0,1-3.36,3.45,1.54,1.54,0,0,0-.6,1.05,1.65,1.65,0,0,0,.45,1,29.53,29.53,0,0,1,3.54,5,.77.77,0,0,1,.07.28.55.55,0,0,1-.52.53A.46.46,0,0,1,618.34,297.21Z"/><path class="cls-10" d="M633.25,294.24v3.27c0,.24-.19.34-.4.34s-.41-.1-.41-.34v-3.27H627a.37.37,0,1,1,0-.73h5.46V291.6c-.84,0-1.66,0-2.46,0-1.15,0-1.63-.66-1.66-1.41,0-.45,0-1,0-1.57s0-1.13,0-1.53a1.41,1.41,0,0,1,1.54-1.38c.68,0,1.59,0,2.58,0,1.19,0,2.46,0,3.45,0a1.39,1.39,0,0,1,1.52,1.27c0,.47,0,1.1,0,1.71s0,1.07,0,1.49a1.44,1.44,0,0,1-1.56,1.42l-2.6,0v1.92h5.49a.37.37,0,1,1,0,.73Zm3.39-6c0-.39,0-.74,0-1a.91.91,0,0,0-1-.9c-.6,0-1.53,0-2.49,0-1.19,0-2.4,0-3.15,0a.89.89,0,0,0-1,.9c0,.24,0,.6,0,1Zm-7.59.66c0,.42,0,.84,0,1.12,0,.65.36.89,1,.9s1.74,0,2.78,0,2.1,0,2.89,0a.83.83,0,0,0,.92-.91c0-.27,0-.69,0-1.11Z"/><path class="cls-10" d="M650.79,287.49v1.57a.39.39,0,0,1-.77,0v-1.57h-2.94v1.57a.35.35,0,0,1-.37.35.36.36,0,0,1-.39-.35v-1.57h-3.45a.37.37,0,0,1,0-.73h3.45v-1.56a.36.36,0,0,1,.39-.34.35.35,0,0,1,.37.34v1.56H650v-1.56a.39.39,0,0,1,.77,0v1.56h3.57a.37.37,0,1,1,0,.73Zm.81,10c-.77,0-1.68,0-2.61,0-1.17,0-2.36,0-3.23-.06-1.27-.06-1.83-.54-1.87-1.57,0-.6,0-1.32,0-2s0-1.44,0-2c0-.94.6-1.56,1.81-1.59.78,0,1.82,0,2.9,0s2.2,0,3.12,0c1.09,0,1.71.6,1.74,1.52,0,.66,0,1.39,0,2.11s0,1.41,0,2C653.43,296.85,652.83,297.4,651.6,297.45Zm-3.39-6.6c-.9,0-1.74,0-2.33,0-1.24,0-1.27.63-1.27,2.5h3.6Zm0,3.21h-3.6c0,.55,0,1.11,0,1.6.05,1.13.59,1.14,3.56,1.14Zm4.48-.68c0-2,0-2.46-1.2-2.5-.67,0-1.59,0-2.49,0v2.53Zm-3.69.68v2.74c.84,0,1.68,0,2.4,0,.92,0,1.23-.38,1.26-1.11,0-.45,0-1,0-1.59Z"/><path class="cls-10" d="M667.53,287.67h-3.2c0,.78,0,1.74,0,2.7,0,1.16,0,2.3,0,3.05a1.41,1.41,0,0,1-1.47,1.35c-.51,0-1,0-1.58,0s-.93,0-1.39,0a1.33,1.33,0,0,1-1.34-1.35c0-.84,0-2.06,0-3.27s0-2.4,0-3.21a1.3,1.3,0,0,1,1.41-1.34c.48,0,1,0,1.47,0s1,0,1.46,0c.91.05,1.42.48,1.44,1.26V287h6.13a.37.37,0,1,1,0,.73h-2.11V296c0,1-.49,1.71-2.14,1.71a7.7,7.7,0,0,1-1.34-.12.4.4,0,0,1-.37-.39.41.41,0,0,1,.4-.42H665a8.19,8.19,0,0,0,1.34.13c.76,0,1.2-.24,1.2-1.06Zm-6.48-1.44c-1.34,0-1.73.09-1.76.88,0,.59,0,1.5,0,2.46h1.79Zm0,4h-1.79c0,1.16,0,2.33,0,3.08s.68.87,1.76.87Zm2.56-.63c0-1,0-1.87,0-2.47,0-.86-.63-.87-1.82-.87v3.34Zm-1.83.63v4c1.28,0,1.8-.09,1.82-.9s0-1.9,0-3.06Z"/><rect class="cls-4" x="519.98" y="334.83" width="194.99" height="45" rx="6"/><rect class="cls-9" x="519.98" y="334.83" width="194.99" height="45" rx="6"/><path class="cls-10" d="M555,362.46l.2-6.09c-.59.57-1.68,1.53-2,1.53a.4.4,0,0,1-.39-.4.42.42,0,0,1,.23-.36,12.74,12.74,0,0,0,3.84-3.95.4.4,0,0,1,.33-.19.45.45,0,0,1,.43.42,9.06,9.06,0,0,1-1.62,2.13l-.16,6.93a.38.38,0,0,1-.42.36.37.37,0,0,1-.41-.36Zm4.29-9.94h-5.68a.38.38,0,1,1,0-.75l5.29,0v-1.67a.42.42,0,0,1,.84,0v1.67l5.26,0a.38.38,0,1,1,0,.75Zm-2.35,10.23a.44.44,0,0,1-.42-.42.34.34,0,0,1,.28-.35,8.76,8.76,0,0,0,3.65-2.19,9,9,0,0,1-1.68-2.59c-1.23,1.65-1.56,1.72-1.73,1.72a.38.38,0,0,1-.37-.37.37.37,0,0,1,.15-.3,13.76,13.76,0,0,0,3.3-4.92.43.43,0,0,1,.38-.3.41.41,0,0,1,.42.39,4.12,4.12,0,0,1-.38.87l2.35-.05h0c.74,0,1.07.32,1.07.81a10.06,10.06,0,0,1-2.57,4.71,8.61,8.61,0,0,0,3.91,2,.39.39,0,0,1,.33.4.41.41,0,0,1-.43.42,8.43,8.43,0,0,1-4.33-2.32A8.81,8.81,0,0,1,556.91,362.75Zm3.43-6.08a.31.31,0,0,1-.2-.28.36.36,0,0,1,.35-.36,7.2,7.2,0,0,1,2,1,6.81,6.81,0,0,0,.66-1.77c0-.19-.12-.31-.37-.31h-2.58a17.25,17.25,0,0,1-1,1.62,8.07,8.07,0,0,0,1.73,2.72,11.62,11.62,0,0,0,1.19-1.62A9.18,9.18,0,0,0,560.34,356.67Z"/><path class="cls-10" d="M574.57,353.58c0,1.4-2,7-4,7-.78,0-2-1-2-2.79a5.58,5.58,0,0,1,5.75-5.3c2.58,0,4.84,1.65,4.84,4.29,0,3.69-4.09,4.89-4.62,4.89a.46.46,0,0,1-.51-.42c0-.18.14-.37.45-.43,2-.44,3.83-1.83,3.83-4.1a3.77,3.77,0,0,0-4-3.57A.41.41,0,0,1,574.57,353.58Zm-5.16,4.19c0,1,.62,2,1.22,2,1,0,2.88-3.6,3.09-6.12a.52.52,0,0,1,.15-.38A4.87,4.87,0,0,0,569.41,357.77Z"/><path class="cls-10" d="M584.23,362.51l.21-8.19c-.38.51-1.68,2.22-2.19,2.22a.38.38,0,0,1-.39-.39.4.4,0,0,1,.15-.32,15.1,15.1,0,0,0,3.87-5.52.37.37,0,0,1,.36-.25.49.49,0,0,1,.48.43,12.71,12.71,0,0,1-1.49,2.7l-.16,9.32a.41.41,0,0,1-.44.36.36.36,0,0,1-.4-.35Zm6.87-5.13a13.07,13.07,0,0,0,4,3.48.42.42,0,0,1,.24.37.44.44,0,0,1-.44.44c-.43,0-2.5-1.56-4-3.66,0,1.06,0,4.42,0,4.42a.36.36,0,0,1-.39.36.37.37,0,0,1-.41-.37s0-3.36.06-4.43c-1.54,2.49-3.6,3.93-4,3.93a.41.41,0,0,1-.4-.39.37.37,0,0,1,.19-.31,11.34,11.34,0,0,0,3.86-3.84l-3.21,0a.35.35,0,1,1,0-.69h3.49l0-1.11h0a.36.36,0,0,1,.39-.35.38.38,0,0,1,.41.36l0,1.11h3.71a.33.33,0,0,1,.34.34.34.34,0,0,1-.34.35Zm1.11-2.24c-.51,0-1,.05-1.53.05-2.91,0-3.2,0-3.2-2.12,0-.46,0-.94,0-1.3a1.28,1.28,0,0,1,1.35-1.25l1.71,0c.56,0,1.11,0,1.65,0a1.29,1.29,0,0,1,1.4,1.19c0,.36,0,.78,0,1.23s0,.61,0,.91C593.62,354.59,593.12,355.08,592.21,355.14Zm.63-3.21c-.05-.73-.44-.75-2.09-.75-.54,0-1.08,0-1.62,0s-.87.31-.88.76c0,.29,0,.66,0,1,0,1.55,0,1.55,2.31,1.55s2.34-.08,2.34-1.31C592.87,352.79,592.85,352.29,592.84,351.93Z"/><path class="cls-10" d="M602.52,352.17h-.07c-.15.41-.56,1.32-.84,1.86q2.4-.13,4.68-.45a8.88,8.88,0,0,0-1-.55.28.28,0,0,1-.18-.24.38.38,0,0,1,.41-.33c.48,0,3,1.66,3,2.29a.38.38,0,0,1-.39.39.44.44,0,0,1-.38-.19,5.39,5.39,0,0,0-.85-.87,68.64,68.64,0,0,1-8.19.82.38.38,0,1,1,0-.75c.69,0,1.39,0,2.07-.07.22-.48.58-1.38.76-1.91l-3.7,0a.36.36,0,0,1,0-.71l5.16,0v-1.35a.38.38,0,0,1,.42-.36.37.37,0,0,1,.4.36v1.35l5.31,0a.36.36,0,0,1,0,.71ZM607.2,361v.07c0,.75-.22,1.74-2,1.74-1.37,0-1.5-.24-1.5-.49a.36.36,0,0,1,.36-.38h.07a6.37,6.37,0,0,0,1.13.11c.81,0,1.15-.29,1.17-1.11,0-.26,0-.54,0-.87h-5.86c0,.91,0,1.83,0,2.49a.39.39,0,0,1-.4.39.36.36,0,0,1-.39-.38c0-1.93,0-4.24.09-5.7,0-.55.45-1.18,1.6-1.21.72,0,1.49,0,2.25,0s1.28,0,1.91,0c1.23,0,1.53.69,1.56,1.24,0,.71,0,2.13,0,2.73Zm-.78-2.85h-5.85c0,.4,0,.87,0,1.32h5.86Zm0-.6c0-.18,0-.33,0-.45,0-.45-.27-.78-1-.81-.53,0-1.13,0-1.73,0s-1.44,0-2,0-1,.39-1,.81v.45Z"/><path class="cls-10" d="M612.28,360.62c0-1.11,0-2.4,0-3.74,0-1.68,0-3.43,0-4.95a1.67,1.67,0,0,1,1.82-1.54c1.27,0,2.62,0,4,0s2.77,0,4.17,0a1.69,1.69,0,0,1,1.74,1.66c0,1.5,0,3.18,0,4.83,0,1.31,0,2.57,0,3.69a1.76,1.76,0,0,1-1.77,1.76c-1.26,0-2.64.06-4,.06s-2.75,0-4-.06S612.31,361.62,612.28,360.62Zm11-4.07c0-1.5,0-3,0-4.24a1.14,1.14,0,0,0-1.29-1.25c-1,0-2.25,0-3.45,0-1.45,0-2.91,0-4.08,0-.91,0-1.33.47-1.35,1.25,0,1.3,0,2.83,0,4.33,0,1.34,0,2.66,0,3.74,0,.85.48,1.23,1.5,1.26s2.28,0,3.53,0,2.56,0,3.79,0a1.22,1.22,0,0,0,1.35-1.31C623.23,359.21,623.25,357.89,623.25,356.55Zm-5.9,1.89a8.32,8.32,0,0,1-3.13,1.91.34.34,0,0,1-.35-.35.32.32,0,0,1,.21-.31,8.84,8.84,0,0,0,3.11-1.82c-2,0-2.24-.16-2.24-1,0-1.29,0-1.34,3-1.34s3.07,0,3.07,1.25c0,1.05-.33,1.09-2.77,1.09a6.15,6.15,0,0,0,1.24,1.1,15.84,15.84,0,0,0,1.67-1,.26.26,0,0,1,.18-.06.36.36,0,0,1,.37.33c0,.16-.16.37-1.65,1.06a7.91,7.91,0,0,0,1.83.71.27.27,0,0,1,.23.27.4.4,0,0,1-.39.39,7.28,7.28,0,0,1-3.75-2.34v2.4a.32.32,0,0,1-.34.3.33.33,0,0,1-.36-.3Zm-3.09-3.7a.3.3,0,0,1,0-.6h3.45v-1H615a.28.28,0,0,1-.28-.31.28.28,0,0,1,.28-.3h2.69v-.76a.35.35,0,0,1,.37-.36.36.36,0,0,1,.39.36v.76h2.76a.31.31,0,0,1,0,.61h-2.76v1H622a.3.3,0,1,1,0,.6Zm3.47,1.36c-2,0-2,0-2.06.35v.48c0,.4.18.4,2.34.4,2.33,0,2.33,0,2.33-.61a1,1,0,0,0,0-.26C620.29,356.1,620.13,356.1,617.73,356.1Z"/><path class="cls-10" d="M631.36,357.44c-.54,1.09-1.61,3.21-3.32,3.21a1.17,1.17,0,0,1-1.24-1.2c0-1.47,2-2.46,4.08-2.69l.16-.31c.57-1.2,1.55-3,2-4a.37.37,0,0,0,0-.15s0-.06-.07-.06a.16.16,0,0,0-.09,0,11.93,11.93,0,0,1-2.36.39c-.31,0-.45-.18-.45-.38a.41.41,0,0,1,.41-.4,19.48,19.48,0,0,0,2.52-.38,1.29,1.29,0,0,1,.33,0c.42,0,.66.22.66.57a1.2,1.2,0,0,1-.18.57c-.74,1.26-1.49,2.8-2.12,4.11a10.47,10.47,0,0,1,4.22.81,4,4,0,0,0,.13-1,2.38,2.38,0,0,0-.31-1.24.33.33,0,0,1,0-.15.41.41,0,0,1,.42-.35c.5,0,.75,1,.75,1.73a4.6,4.6,0,0,1-.21,1.33A11.79,11.79,0,0,1,639,359.3a.56.56,0,0,1,.24.43.45.45,0,0,1-.43.47.54.54,0,0,1-.35-.15,9.65,9.65,0,0,0-2.11-1.46A6.62,6.62,0,0,1,633,362a.33.33,0,0,1-.36-.33.5.5,0,0,1,.29-.42,6.94,6.94,0,0,0,2.7-3,10.49,10.49,0,0,0-3.84-.82Zm-3.78,1.92a.53.53,0,0,0,.58.51c1.13,0,2.06-1.76,2.36-2.37C629,357.74,627.58,358.52,627.58,359.36Z"/><path class="cls-10" d="M646.81,362.61a.45.45,0,0,1-.49-.42c0-.19.13-.39.46-.45a7.72,7.72,0,0,0,2.16-.7c1.49-.87,2.13-1.86,2.13-2.64s-.78-1.25-1.62-1.25a7.6,7.6,0,0,0-4.21,1.86,1.21,1.21,0,0,1-.75.38c-.42,0-.69-.36-.69-1.49a15.62,15.62,0,0,1,.13-1.77c.12-1,.32-1.95.42-2.61a.42.42,0,0,1,.42-.36.34.34,0,0,1,.36.35v.07c-.09.65-.27,1.53-.39,2.27a12.75,12.75,0,0,0-.18,1.72c0,.24,0,.68.18.68a.79.79,0,0,0,.33-.17,9,9,0,0,1,4.43-1.66c1.53,0,2.44.84,2.44,2s-.75,2.27-2.44,3.3A7.74,7.74,0,0,1,646.81,362.61Zm.11-9.69a.51.51,0,0,1-.17,0,.38.38,0,0,1-.39-.37.26.26,0,0,1,.18-.27c.39-.15.57-.26.57-.38s-.15-.21-.43-.39c-1.08-.69-1.16-.73-1.16-1a.36.36,0,0,1,.39-.35.61.61,0,0,1,.33.12c.29.21.72.48,1.08.69s1,.6,1,1S648.15,352.56,646.92,352.92Z"/><path class="cls-10" d="M661.1,358a.47.47,0,0,1,.45.45c0,.09-.69,2.29-2,2.29-.77,0-2.58-.94-2.85-5.26,0-.66-.06-1-.06-1.32s0-.8.43-.8.44.3.44,1.17c0,4.34,1.57,5.27,2,5.27.18,0,.69-.08,1.25-1.52A.41.41,0,0,1,661.1,358Zm5.57-.35a4.85,4.85,0,0,0-1.85-3.09.34.34,0,0,1-.16-.31.38.38,0,0,1,.39-.38c.66,0,2.53,2.28,2.53,3.59a.54.54,0,0,1-.51.57A.4.4,0,0,1,666.67,357.66Z"/><path class="cls-10" d="M677.36,362.21a23.6,23.6,0,0,0-3.29-5,2.33,2.33,0,0,1-.66-1.47,2.3,2.3,0,0,1,.83-1.59,25.78,25.78,0,0,0,3.19-3.5.5.5,0,0,1,.42-.25.48.48,0,0,1,.48.48.52.52,0,0,1-.12.33,40.39,40.39,0,0,1-3.36,3.45,1.58,1.58,0,0,0-.6,1.05,1.72,1.72,0,0,0,.45,1,29.53,29.53,0,0,1,3.54,5,.63.63,0,0,1,.08.28.55.55,0,0,1-.53.53A.45.45,0,0,1,677.36,362.21Z"/><rect class="cls-4" x="519.98" y="204.83" width="194.99" height="45" rx="6"/><rect class="cls-9" x="519.98" y="204.83" width="194.99" height="45" rx="6"/><path class="cls-10" d="M568.42,227.44c-.54,1.09-1.6,3.21-3.31,3.21a1.17,1.17,0,0,1-1.25-1.2c0-1.47,2-2.46,4.08-2.69l.17-.31c.57-1.2,1.54-3,2-4a.43.43,0,0,0,0-.15s0-.06-.08-.06a.18.18,0,0,0-.09,0,11.89,11.89,0,0,1-2.35.39c-.32,0-.45-.18-.45-.38a.41.41,0,0,1,.4-.4,19.23,19.23,0,0,0,2.52-.38,1.35,1.35,0,0,1,.33,0c.42,0,.66.22.66.57a1.2,1.2,0,0,1-.18.57c-.73,1.26-1.48,2.8-2.11,4.11a10.42,10.42,0,0,1,4.21.81,4,4,0,0,0,.14-1,2.38,2.38,0,0,0-.32-1.24.31.31,0,0,1,0-.15.4.4,0,0,1,.42-.35c.49,0,.75,1,.75,1.73a5,5,0,0,1-.21,1.33,11.79,11.79,0,0,1,2.37,1.46.6.6,0,0,1,.24.43.46.46,0,0,1-.44.47.52.52,0,0,1-.34-.15,10,10,0,0,0-2.12-1.46,6.61,6.61,0,0,1-3.34,3.44.33.33,0,0,1-.36-.33.48.48,0,0,1,.28-.42,6.82,6.82,0,0,0,2.7-3,10.49,10.49,0,0,0-3.84-.82Zm-3.78,1.92a.54.54,0,0,0,.59.51c1.12,0,2-1.76,2.35-2.37C566,227.74,564.64,228.52,564.64,229.36Z"/><path class="cls-10" d="M588.43,232.61a.45.45,0,0,1-.49-.42c0-.19.13-.39.46-.45a7.72,7.72,0,0,0,2.16-.7c1.49-.87,2.13-1.86,2.13-2.64s-.78-1.25-1.62-1.25a7.6,7.6,0,0,0-4.21,1.86,1.21,1.21,0,0,1-.75.38c-.42,0-.69-.36-.69-1.49a15.62,15.62,0,0,1,.13-1.77c.12-1,.32-1.95.42-2.61a.42.42,0,0,1,.42-.36.34.34,0,0,1,.36.35v.07c-.09.65-.27,1.53-.39,2.27a12.75,12.75,0,0,0-.18,1.72c0,.24,0,.68.18.68a.79.79,0,0,0,.33-.17,9,9,0,0,1,4.43-1.66c1.53,0,2.44.84,2.44,2s-.75,2.27-2.44,3.3A7.74,7.74,0,0,1,588.43,232.61Zm.11-9.69a.51.51,0,0,1-.17,0,.38.38,0,0,1-.39-.37.26.26,0,0,1,.18-.27c.39-.15.57-.26.57-.38s-.15-.21-.43-.39c-1.08-.69-1.16-.73-1.16-1a.36.36,0,0,1,.39-.35.61.61,0,0,1,.33.12c.29.21.72.48,1.08.69s1,.6,1,1S589.77,222.56,588.54,222.92Z"/><path class="cls-10" d="M607.29,228a.48.48,0,0,1,.45.45c0,.09-.69,2.29-2.06,2.29-.76,0-2.58-.94-2.85-5.26,0-.66-.06-1-.06-1.32s0-.8.44-.8.43.3.43,1.17c0,4.34,1.58,5.27,2,5.27.18,0,.69-.08,1.24-1.52A.43.43,0,0,1,607.29,228Zm5.56-.35a4.89,4.89,0,0,0-1.84-3.09.35.35,0,0,1-.17-.31.38.38,0,0,1,.39-.38c.66,0,2.54,2.28,2.54,3.59a.54.54,0,0,1-.51.57A.41.41,0,0,1,612.85,227.66Z"/><path class="cls-10" d="M628.24,232.21a23.19,23.19,0,0,0-3.28-5,2,2,0,0,1,.16-3.06,25.22,25.22,0,0,0,3.2-3.5.5.5,0,0,1,.42-.25.49.49,0,0,1,.48.48.52.52,0,0,1-.12.33,42,42,0,0,1-3.36,3.45,1.54,1.54,0,0,0-.6,1,1.65,1.65,0,0,0,.45,1,29.53,29.53,0,0,1,3.54,5,.77.77,0,0,1,.07.28.55.55,0,0,1-.52.53A.46.46,0,0,1,628.24,232.21Z"/><path class="cls-10" d="M640.57,222.2a.35.35,0,0,1-.36-.36.33.33,0,0,1,.35-.33l5.1,0,0-1.32a.41.41,0,0,1,.44-.39.39.39,0,0,1,.43.39v1.32l5.08,0a.35.35,0,0,1,0,.69Zm.08,6a1.41,1.41,0,0,1,1.6-1.45c1.34,0,2.79,0,4.29,0,1.1,0,2.22,0,3.33,0a1.46,1.46,0,0,1,1.59,1.33v2.43c0,.2,0,.51,0,.81v.05c0,.7-.33,1.38-1.8,1.38-1.26,0-1.42-.2-1.42-.47a.37.37,0,0,1,.37-.4h.06a7.68,7.68,0,0,0,1.13.13c.52,0,.84-.18.84-.75,0-2.35,0-2.7,0-3,0-.54-.36-.84-1-.86-1.2,0-2.49,0-3.76,0s-2.48,0-3.54,0a.86.86,0,0,0-.93.92c0,.54,0,1.3,0,2.07s0,1.56,0,2.16a.37.37,0,0,1-.41.36.38.38,0,0,1-.4-.38Zm5.43-2.4c-3.18,0-3.45,0-3.45-1.24,0-.84,0-1.38,1.3-1.4l2.4,0c3,0,3.23,0,3.23,1.34S649.38,225.8,646.08,225.8Zm-.05,5.36c-2.5,0-2.82-.12-2.82-1.34,0-.66,0-1.3,1.13-1.35.51,0,1.11,0,1.71,0s1.21,0,1.69,0c1.11.05,1.14.69,1.14,1.26C648.88,231.13,648.48,231.16,646,231.16Zm2.76-6.69c0-.53,0-.71-.67-.71h-4c-.6,0-.68.18-.68.69,0,.75,0,.75,2.55.75s2.82,0,2.84-.42A2.73,2.73,0,0,0,648.79,224.47ZM646,230.53c2.1,0,2.1,0,2.1-.77a2.35,2.35,0,0,0,0-.28c0-.44-.06-.44-2.33-.44-.46,0-.91,0-1.24,0-.57,0-.59.24-.59,1C644,230.53,644.25,230.53,646,230.53Z"/><path class="cls-10" d="M668.49,231.89c-1,0-2.21.06-3.41.06s-2.35,0-3.24-.06A1.69,1.69,0,0,1,660,230.2c0-.92-.05-2.15-.05-3.41s0-2.55.05-3.57a1.67,1.67,0,0,1,1.83-1.77c.76,0,2.17,0,3.55,0s2.46,0,3.2,0a1.66,1.66,0,0,1,1.77,1.67c0,.94,0,2.2,0,3.43s0,2.73,0,3.57A1.71,1.71,0,0,1,668.49,231.89Zm-3.78-9.79c-1.1,0-2.15,0-2.72,0-.88.05-1.23.42-1.26,1.19s0,1.66,0,2.67h4Zm0,4.6h-4c0,1.26,0,2.49,0,3.26s.43,1.18,1.41,1.21c.66,0,1.59.05,2.58.05Zm4.87-.7c0-1,0-1.95-.06-2.67s-.31-1.14-1.23-1.19c-.61,0-1.69,0-2.82,0V226Zm-4.11.7v4.52c1,0,2,0,2.75-.05.94,0,1.27-.43,1.3-1.27s.06-2,.06-3.2Z"/><rect class="cls-4" x="180.63" y="321.78" width="194.99" height="45" rx="6"/><rect class="cls-11" x="180.63" y="321.78" width="194.99" height="45" rx="6"/><path class="cls-12" d="M243,345.44c0,.88,0,1.75-1.44,1.78-.82,0-1.77,0-2.74,0v.1c0,.26,0,.65,0,.93,0,.71-.24,1.41-1.69,1.41s-1.41-.24-1.41-.46a.37.37,0,0,1,.37-.39h.08a6.4,6.4,0,0,0,1,.12c.54,0,.86-.2.86-.87v-.84h-4.17a.3.3,0,0,1-.3-.32.29.29,0,0,1,.3-.31h4.17v-1.21H232.2a.29.29,0,0,1-.29-.32.28.28,0,0,1,.29-.3h5.88v-1.08c-1.5,0-3,0-4.19,0a.29.29,0,0,1-.28-.31.3.3,0,0,1,.3-.32h4.17v-.93c-3.93,0-4,0-4-1.2,0-.79.09-1.32,1.38-1.33l2.61,0v-1h-4.92a.34.34,0,0,1,0-.67h4.92v-1a.38.38,0,1,1,.75,0v1h4.87a.34.34,0,1,1,0,.67h-4.87v1c1,0,2,0,2.64,0,1.12,0,1.33.4,1.33,1.26s-.07,1.2-1.32,1.24c-.61,0-1.62,0-2.65,0v.93c1,0,1.9,0,2.76,0,1.35,0,1.42.75,1.42,1.62h1.62a.31.31,0,0,1,.33.34.32.32,0,0,1-.33.35Zm-4.93-5.24c-1,0-2,0-2.51,0s-.7.21-.7.65c0,.09,0,.18,0,.25,0,.45.18.47,3.2.47Zm.75,1.4c3,0,3.15,0,3.18-.45a2.17,2.17,0,0,0,0-.26,1.93,1.93,0,0,0,0-.25c0-.42-.17-.44-3.18-.44Zm3.43,3.19c0-.52,0-1-.82-1.05s-1.68,0-2.61,0v1.08Zm-3.43.62v1.21h2.61c.82,0,.82-.66.82-1.2Z"/><path class="cls-12" d="M254.89,345.77a15.21,15.21,0,0,0,5.33,2.82.41.41,0,0,1-.12.81,16.22,16.22,0,0,1-5.6-3.17l.05,3.23a.37.37,0,0,1-.41.37.36.36,0,0,1-.39-.36l0-3.24a16.07,16.07,0,0,1-5.56,3.23.39.39,0,0,1-.42-.38c0-.15.09-.3.33-.39a14.51,14.51,0,0,0,5.23-2.92l-4.89.06a.33.33,0,0,1-.33-.35.33.33,0,0,1,.33-.33l5.31,0v-1.09H250a.29.29,0,0,1-.31-.31.31.31,0,0,1,.31-.32l3.77,0,0-1.1-4.5,0a.33.33,0,1,1,0-.65l3.06,0a5.6,5.6,0,0,0-.58-1,.18.18,0,0,1-.06-.15.36.36,0,0,1,.39-.3c.46,0,.91,1,1,1.28a.53.53,0,0,1,0,.12v.06h2.09a6,6,0,0,0,.48-1.25.34.34,0,0,1,.36-.24.42.42,0,0,1,.45.38,4.79,4.79,0,0,1-.5,1.11l3,0a.33.33,0,0,1,0,.65l-4.46,0v1.1l3.71,0a.31.31,0,0,1,.31.32.29.29,0,0,1-.31.31h-3.72l0,1.09,5.34,0a.32.32,0,0,1,.33.35.31.31,0,0,1-.31.33Zm-6.54-5.67a.34.34,0,0,1-.34-.35.33.33,0,0,1,.34-.34H251a7.38,7.38,0,0,0-1.07-1.41.19.19,0,0,1-.06-.13c0-.18.23-.36.45-.36.39,0,1.44,1.53,1.44,1.9h1v-2.35a.38.38,0,0,1,.75,0v2.35h1.27v-2.35a.34.34,0,0,1,.38-.35.34.34,0,0,1,.36.35l0,2.35h1a9.39,9.39,0,0,0,1-1.71.43.43,0,0,1,.39-.27.42.42,0,0,1,.42.39,6.61,6.61,0,0,1-1,1.59H260a.33.33,0,0,1,.36.34.34.34,0,0,1-.36.35Z"/><path class="cls-12" d="M263.55,348.74a.35.35,0,0,1-.39-.32.64.64,0,0,1,.07-.24,8.46,8.46,0,0,0,1-2.94.3.3,0,0,1,.33-.28.38.38,0,0,1,.4.37,10.48,10.48,0,0,1-1.06,3.21A.42.42,0,0,1,263.55,348.74Zm2.26-5c-1.23.17-2.16.24-2.17.24a.33.33,0,0,1-.33-.36.3.3,0,0,1,.28-.33l.92-.06a11.73,11.73,0,0,0,1-1.36,11.69,11.69,0,0,0-1.93-1.58.29.29,0,0,1-.14-.24.4.4,0,0,1,.38-.36c.12,0,.24.06.54.26a12.16,12.16,0,0,0,1.36-3,.34.34,0,0,1,.35-.24c.21,0,.45.14.45.36a16.64,16.64,0,0,1-1.65,3.26,12.88,12.88,0,0,1,1,.94,17.77,17.77,0,0,0,1.37-2.53.32.32,0,0,1,.31-.21.43.43,0,0,1,.44.39,20.63,20.63,0,0,1-2.67,4.23l2.28-.24a6.09,6.09,0,0,0-.5-.75.48.48,0,0,1-.07-.2.32.32,0,0,1,.34-.28c.48,0,1.35,1.93,1.35,2.2a.38.38,0,0,1-.36.41.34.34,0,0,1-.33-.29,2.9,2.9,0,0,0-.18-.57c-.31.06-.81.12-1.38.2l0,5.71a.4.4,0,1,1-.79,0Zm2.07,3.35a6.6,6.6,0,0,0-.66-2,.34.34,0,0,1,0-.15.27.27,0,0,1,.3-.26.39.39,0,0,1,.3.14,6.63,6.63,0,0,1,.82,2.19.38.38,0,0,1-.39.39A.34.34,0,0,1,267.88,347.06Zm.44,1.6a.37.37,0,0,1,.09-.21,4.93,4.93,0,0,0,1-2.1.33.33,0,0,1,.33-.27.37.37,0,0,1,.38.33c0,.24-.65,2.58-1.41,2.58A.37.37,0,0,1,268.32,348.66Zm.27-7.59a.31.31,0,0,1,.16-.28,5.52,5.52,0,0,0,1.68-2,.35.35,0,0,1,.32-.2.38.38,0,0,1,.39.35c0,.3-1.53,2.44-2.16,2.44A.37.37,0,0,1,268.59,341.07Zm.84,2.49a.31.31,0,0,1-.33-.33.32.32,0,0,1,.31-.36c.39,0,.83,0,1.29-.07a21.35,21.35,0,0,0,.95-2.79.33.33,0,0,1,.34-.26c.21,0,.44.14.44.33a14.92,14.92,0,0,1-1,2.63c1-.12,2-.27,2.77-.44a6.61,6.61,0,0,0-.78-.85.28.28,0,0,1-.1-.2.36.36,0,0,1,.37-.3c.47,0,1.94,1.89,1.94,2.33a.42.42,0,0,1-.39.42.35.35,0,0,1-.32-.23,4.8,4.8,0,0,0-.37-.67A30.9,30.9,0,0,1,269.43,343.56Zm2.25,2.12c0,.51-.06,1.45-.06,2.11,0,.95.07,1,1.11,1s1.3-.21,1.3-1a.33.33,0,0,1,.35-.35.42.42,0,0,1,.42.45c0,1.44-.9,1.55-2.15,1.55-1,0-1.78-.11-1.78-1.25,0-.55,0-1.92,0-2.58a.35.35,0,0,1,.39-.33c.2,0,.38.11.38.3Zm-.45-7.74h0a.32.32,0,0,1-.33-.33.33.33,0,0,1,.33-.33l1.49,0h.06a1.16,1.16,0,0,1,1.09.57,5.49,5.49,0,0,0,2.45,2.41.43.43,0,0,1,.24.35.44.44,0,0,1-.44.42,6.09,6.09,0,0,1-2.8-2.76.69.69,0,0,0-.63-.35h-.06Zm2,7.77a4.35,4.35,0,0,0-1.6-1.13c-.12-.06-.17-.13-.17-.22a.39.39,0,0,1,.38-.35c.25,0,2,.83,2,1.4a.43.43,0,0,1-.39.42A.27.27,0,0,1,273.22,345.71Zm2.84,2.26a5.19,5.19,0,0,0-1.52-1.51.34.34,0,0,1-.15-.24.38.38,0,0,1,.39-.35c.42,0,2,1.4,2,1.89a.42.42,0,0,1-.41.42A.39.39,0,0,1,276.06,348Z"/><path class="cls-12" d="M281.32,344.33a14.85,14.85,0,0,1-1.84.54.37.37,0,0,1-.38-.38.38.38,0,0,1,.32-.37c.66-.17,1.29-.35,1.9-.54v-3h-1.68a.36.36,0,0,1,0-.72h1.68V337.2a.38.38,0,0,1,.41-.4.38.38,0,0,1,.39.4l0,2.67h1.37a.36.36,0,0,1,0,.72H282.1v2.74a12.63,12.63,0,0,0,1.37-.55.19.19,0,0,1,.1,0,.38.38,0,0,1,.35.37c0,.26-.32.41-1.82,1v2.24c0,.24,0,1.29,0,1.83v0c0,.84-.4,1.42-1.54,1.42-1,0-1.19-.18-1.19-.48a.37.37,0,0,1,.36-.4h.06a6.1,6.1,0,0,0,.77.09c.43,0,.72-.15.73-.71Zm7-2.31v2.38c.42,0,.82,0,1.21,0a1.34,1.34,0,0,1,1.44,1.23q0,.7,0,1.47c0,.32,0,.62,0,.92a1.35,1.35,0,0,1-1.46,1.33c-.48,0-1.05.05-1.62.05-1.81,0-3,0-3.07-1.35,0-.3,0-.62,0-.93,0-.5,0-1,0-1.43a1.36,1.36,0,0,1,1.44-1.29c.41,0,.83,0,1.25,0V342l-3.33,0a.36.36,0,0,1,0-.72l3.33,0v-2.43c-.63.06-2.07.19-2.85.19a.35.35,0,0,1-.38-.36.35.35,0,0,1,.32-.37,22.68,22.68,0,0,0,5.8-.71l.15,0a.37.37,0,0,1,.36.39c0,.29-.16.5-2.62.8v2.52l3.51,0a.36.36,0,1,1,0,.72Zm1.89,5.05c0-.39,0-.79,0-1.18s-.26-.77-.89-.78c-.39,0-.87,0-1.36,0s-1,0-1.38,0c-.66,0-.92.34-.93.76s0,.78,0,1.17,0,.57,0,.83c0,.82.48.85,2.31.85s2.27,0,2.28-.87C290.2,347.61,290.22,347.34,290.22,347.07Z"/><path class="cls-12" d="M301.75,346.5v2.93a.35.35,0,0,1-.39.33.35.35,0,0,1-.39-.33V346.5h-2.32a.3.3,0,0,1-.32-.33.33.33,0,0,1,.32-.36H301v-.67l0-3.86a21.82,21.82,0,0,1-5.31,6,.47.47,0,0,1-.31.12.41.41,0,0,1-.42-.4.43.43,0,0,1,.21-.35,18.62,18.62,0,0,0,5.46-6l-4.85.05a.35.35,0,0,1-.39-.35.39.39,0,0,1,.39-.39H301v-2.85a.35.35,0,0,1,.39-.33.35.35,0,0,1,.39.33v2.85h5.16a.35.35,0,0,1,.36.38.35.35,0,0,1-.36.36l-4.83-.05a18.34,18.34,0,0,0,5.48,5.6.47.47,0,0,1,.24.39.47.47,0,0,1-.48.43.62.62,0,0,1-.32-.1,20.83,20.83,0,0,1-5.28-5.75l0,3.95v.67h2.34c.21,0,.3.17.3.35a.31.31,0,0,1-.3.34Z"/><path class="cls-12" d="M311.05,343.47a.33.33,0,0,1-.36-.34.34.34,0,0,1,.36-.35l3.53,0a15.78,15.78,0,0,0,1.2-2.66.37.37,0,0,1,.36-.28.45.45,0,0,1,.45.4,15,15,0,0,1-1.26,2.54l2.32,0a.35.35,0,1,1,0,.69Zm.38-4.29a.34.34,0,0,1-.38-.33.36.36,0,0,1,.38-.36l2.49,0,0-1.25a.38.38,0,0,1,.41-.36.36.36,0,0,1,.4.36v1.25l2.53,0a.35.35,0,1,1,0,.69Zm4.29,10.17c-.38,0-.8,0-1.23,0-2.55,0-2.84,0-2.84-2.08,0-.45,0-.9,0-1.28a1.19,1.19,0,0,1,1.26-1.2c.42,0,.92,0,1.4,0s1,0,1.39,0A1.2,1.2,0,0,1,317,346c0,.37,0,.79,0,1.21s0,.6,0,.9A1.22,1.22,0,0,1,315.72,349.35ZM313,341.93a5.63,5.63,0,0,0-.9-1.5.3.3,0,0,1,.28-.51c.41,0,1.34,1.38,1.34,1.81a.41.41,0,0,1-.41.42A.33.33,0,0,1,313,341.93Zm3.3,4.95c0-1.38,0-1.43-1.76-1.43-.49,0-1,0-1.32,0-.76,0-.79.33-.79,1.74s0,1.48,1.83,1.48,2,0,2-.87C316.29,347.52,316.29,347.19,316.29,346.88Zm3.24-5.37c0,1.95,0,4.14,0,6.28v1.64a.37.37,0,0,1-.4.36.38.38,0,0,1-.42-.36c0-2.78,0-7.41,0-10.44,0-1.35.8-1.41,2.15-1.41h1.26c.79,0,1.26.47,1.26,1.08a6.13,6.13,0,0,1-1,2.25,1.84,1.84,0,0,0-.33.86c0,.28.17.54.5,1a4,4,0,0,1,1,2.49,2,2,0,0,1-2.14,2.27c-1,0-1-.33-1-.5a.38.38,0,0,1,.36-.42h.07a3.82,3.82,0,0,0,.56.06c.76,0,1.32-.39,1.32-1.48a4,4,0,0,0-1-2.36,1.47,1.47,0,0,1-.37-.94,2.46,2.46,0,0,1,.3-1,13.73,13.73,0,0,0,.85-1.88.68.68,0,0,0,0-.19c0-.51-.39-.51-1.8-.51-.88,0-1.2,0-1.2.82S319.53,340.65,319.53,341.51Z"/><rect class="cls-4" x="180.63" y="384.78" width="194.99" height="45" rx="6"/><rect class="cls-11" x="180.63" y="384.78" width="194.99" height="45" rx="6"/><path class="cls-12" d="M234,405.11H232.2a.36.36,0,0,1,0-.71l1.77,0v-3.54a.4.4,0,0,1,.79,0v3.54l1.6,0a.36.36,0,0,1,0,.71h-1.6l0,4.06c.63-.27,1.22-.55,1.67-.79a.41.41,0,0,1,.18-.05.35.35,0,0,1,.33.35.37.37,0,0,1-.23.33,32.57,32.57,0,0,1-4.59,1.95.37.37,0,0,1-.37-.39.38.38,0,0,1,.27-.36c.6-.18,1.3-.44,2-.72Zm6.46-.36-1.92,1c0,1.89,0,3.83,0,4.76,0,1.15,1.11,1.15,2.16,1.15,3,0,3.36-.36,3.36-1.92a.36.36,0,0,1,.39-.4c.16,0,.45.09.45.52,0,2.31-1.41,2.51-4,2.51-1.57,0-3.16,0-3.16-1.76v-4.47a10,10,0,0,1-1.59.78.35.35,0,0,1-.33-.36.31.31,0,0,1,.19-.31l1.73-.89v-3.52a.39.39,0,0,1,.78,0c0,.81,0,2,0,3.15l1.92-1v-3.51a.39.39,0,0,1,.77,0v3.12c1.21-.62,1.5-.75,1.89-.75.94,0,1,.9,1,1.72,0,3.36-.27,4.26-1.55,4.26-.66,0-.75-.19-.75-.43s.12-.41.3-.41l.08,0a1.55,1.55,0,0,0,.39.06c.52,0,.76-.48.76-3.2,0-.93-.07-1.26-.43-1.26-.08,0-.23,0-1.68.77v5.19a.39.39,0,0,1-.77,0Z"/><path class="cls-12" d="M253.86,404.33h-1.35a.36.36,0,0,1,0-.71l1.33,0v-2.82a.36.36,0,0,1,.39-.36.37.37,0,0,1,.41.36l0,2.82,1.16,0a.36.36,0,0,1,0,.71h-1.16v4c.45-.19.86-.42,1.25-.63a.37.37,0,0,1,.16,0,.35.35,0,0,1,.33.36.37.37,0,0,1-.21.33A20.14,20.14,0,0,1,252.3,410a.39.39,0,0,1-.38-.41.33.33,0,0,1,.24-.34c.59-.18,1.16-.38,1.7-.6Zm2.2,6.42a.36.36,0,0,1-.36-.39A.34.34,0,0,1,256,410a20.72,20.72,0,0,0,4.35-1.54.35.35,0,0,1,.14,0,.3.3,0,0,1,.27.31.34.34,0,0,1-.17.29A20.26,20.26,0,0,1,256.06,410.75Zm6.11-2.21a11.28,11.28,0,0,0,1.47-3.42.3.3,0,0,1,.31-.24.42.42,0,0,1,.44.39,11.84,11.84,0,0,1-2,4.2c.05.17.54,2.18,1.25,2.18.43,0,.73-.83.79-1.55a.34.34,0,0,1,.35-.3.4.4,0,0,1,.42.39c0,.6-.45,2.27-1.58,2.27-.91,0-1.42-1.07-1.8-2.28a8,8,0,0,1-3.72,2.5.35.35,0,0,1-.37-.36.42.42,0,0,1,.3-.39,8.44,8.44,0,0,0,3.57-2.59,33.33,33.33,0,0,1-.66-6.18h-4.43a.36.36,0,1,1,0-.72l4.41,0c0-.54-.06-1.83-.06-2.19a.4.4,0,0,1,.8,0c0,.63,0,1.36,0,2.16l2.78,0a.36.36,0,1,1,0,.72h-2.76a38.65,38.65,0,0,0,.51,5.4Zm-5.31-1.3c0-.33,0-.66,0-1s0-.67,0-1c0-.84.61-.9,1.56-.9s1.47.05,1.5.89c0,.39,0,.75,0,1.11,0,1.54,0,1.8-1.67,1.8C257.53,408.14,256.87,408.09,256.86,407.24Zm1.11-2.3c-.47,0-.48.3-.48,1.29,0,1.25,0,1.29.9,1.29s.9,0,.9-1.32c0-1.09,0-1.23-.48-1.26Zm5.85-3.33a4,4,0,0,0-1.28-1,.21.21,0,0,1-.13-.19.36.36,0,0,1,.37-.33c.23,0,1.62.69,1.62,1.21a.38.38,0,0,1-.36.38A.28.28,0,0,1,263.82,401.61Z"/><path class="cls-12" d="M277.2,406.28a8,8,0,0,0,1.38,2.44,7.91,7.91,0,0,0,1.57-2.85.35.35,0,0,1,.35-.25.42.42,0,0,1,.45.37,8.4,8.4,0,0,1-1.88,3.29,8.72,8.72,0,0,0,5.39,2.35.38.38,0,0,1,.37.38.48.48,0,0,1-.49.48,9.91,9.91,0,0,1-5.75-2.7,9.94,9.94,0,0,1-5.77,2.82.43.43,0,0,1-.44-.42.37.37,0,0,1,.36-.38,9,9,0,0,0,5.37-2.56,8.79,8.79,0,0,1-1.39-2.37c-.26.37-1.05,1.48-1.44,1.48a.4.4,0,0,1-.41-.39.41.41,0,0,1,.18-.31,6.35,6.35,0,0,0,1.52-1.8.3.3,0,0,1,.28-.14c.21,0,.42.11.42.32a.39.39,0,0,1,0,.18Zm1.38-3.9h-5.43a.38.38,0,1,1,0-.75l5.05,0V400.1a.42.42,0,0,1,.84,0l0,1.56,5,0a.38.38,0,0,1,0,.75Zm-4.82,4.15a.45.45,0,0,1-.45-.43.39.39,0,0,1,.27-.35,7.09,7.09,0,0,0,3.06-2.37.34.34,0,0,1,.27-.15.48.48,0,0,1,.45.45C277.36,404.25,274.47,406.53,273.76,406.53Zm9.27-.61a10.49,10.49,0,0,0-2.94-2,.34.34,0,0,1-.19-.29.38.38,0,0,1,.4-.37,9.63,9.63,0,0,1,3.35,2,.54.54,0,0,1,.16.36.46.46,0,0,1-.43.45A.52.52,0,0,1,283,405.92Z"/><path class="cls-12" d="M294.24,405.56a6.49,6.49,0,0,0-1.94-1,.29.29,0,0,1-.21-.27.42.42,0,0,1,.42-.39,6.54,6.54,0,0,1,2.18.91.46.46,0,0,1-.2.83A.43.43,0,0,1,294.24,405.56Zm-1.55,6.85a.43.43,0,0,1-.42-.42.49.49,0,0,1,.12-.28,12.88,12.88,0,0,0,2.36-3.9.35.35,0,0,1,.34-.21.37.37,0,0,1,.39.37,13.12,13.12,0,0,1-2.38,4.23A.55.55,0,0,1,292.69,412.41Zm2.25-10.09a7.34,7.34,0,0,0-1.75-1.38.26.26,0,0,1-.15-.23.44.44,0,0,1,.42-.39c.27,0,2.17,1.14,2.17,1.67a.46.46,0,0,1-.43.45A.33.33,0,0,1,294.94,402.32Zm3.08,3.9a.39.39,0,0,1,.4.4c0,2.22-.21,4.77-2.65,5.93a.64.64,0,0,1-.24.06.4.4,0,0,1-.41-.39.26.26,0,0,1,.17-.27c2.13-1,2.35-2.88,2.35-4.82v-.54A.35.35,0,0,1,298,406.22Zm2-3.92a13.71,13.71,0,0,1-1.05,2.34c1.3-.07,2.62-.21,3.79-.36-.28-.25-.57-.49-.85-.7a.32.32,0,0,1-.14-.23.35.35,0,0,1,.36-.31,5.56,5.56,0,0,1,2.36,2.17.42.42,0,0,1-.39.42.35.35,0,0,1-.32-.18,4.08,4.08,0,0,0-.51-.64,60.09,60.09,0,0,1-6.57.63.35.35,0,0,1-.36-.36.33.33,0,0,1,.33-.35c.5,0,1,0,1.5,0a13.14,13.14,0,0,0,1-2.39h-2.55a.34.34,0,1,1,0-.67h3.3l0-1.44a.42.42,0,0,1,.83,0v1.44h3.69a.34.34,0,1,1,0,.67Zm-.26,4.19a.36.36,0,0,1,.38-.36.35.35,0,0,1,.37.36l0,5.28a.35.35,0,0,1-.39.34.34.34,0,0,1-.39-.34ZM302,411.3c0-.48,0-4.47.05-4.84a.35.35,0,0,1,.39-.33c.37,0,.37.33.37.57,0,.87,0,3.46,0,4.29,0,.54,0,.76.72.76.87,0,.93-.46.93-1.06s.16-.6.37-.6a.38.38,0,0,1,.41.37v.09c0,1.38-.42,1.89-1.74,1.89C302.61,412.44,302,412.22,302,411.3Z"/><path class="cls-12" d="M313,412.17a.46.46,0,0,1-.39.21.4.4,0,0,1-.42-.37.42.42,0,0,1,.09-.24c1.5-2,1.74-4.73,1.74-7.31,0-.91,0-1.8,0-2.65v0a1.27,1.27,0,0,1,1.41-1.35c1,0,2.08,0,3.22,0s2.3,0,3.29,0c1.39,0,1.42.67,1.42,1.74,0,.54,0,1.35-1.56,1.36-1.32,0-3,.05-4.74.05-.73,0-1.47,0-2.2,0V405H323c.93,0,1.53.48,1.53,1.41a19.62,19.62,0,0,1-.37,3.93,2.79,2.79,0,0,1-2.94,2.27,6.43,6.43,0,0,1-1.5-.21.37.37,0,0,1-.26-.38.38.38,0,0,1,.38-.42.3.3,0,0,1,.13,0,5.3,5.3,0,0,0,1.29.19,2,2,0,0,0,2.09-1.6,18.9,18.9,0,0,0,.36-3.72c0-.5-.27-.83-.89-.83H321c-2,0-4.92,0-6.13,0C314.71,408.05,314.34,410.49,313,412.17Zm1.8-9.3c1,0,2.12,0,3.14,0,1.44,0,2.79,0,3.78-.05.76,0,.79-.49.79-.88,0-.57-.07-.84-.82-.86s-1.82,0-2.79,0c-1.17,0-2.34,0-3.26,0a.78.78,0,0,0-.85.83v.94Zm3.83,7.58c-.56,0-1.11,0-1.5,0a1.2,1.2,0,0,1-1.22-1.1c0-.22,0-.45,0-.69s0-.46,0-.69a1.14,1.14,0,0,1,1.19-1c.34,0,.79,0,1.26,0,.64,0,1.32,0,1.81,0a1.16,1.16,0,0,1,1.23.91c0,.23,0,.48,0,.74,0,.87,0,1.75-1.32,1.83C319.77,410.43,319.21,410.45,318.66,410.45Zm.22-2.91H317.5c-.67,0-.81.32-.81,1.11,0,1,0,1.11,2.13,1.11,1.86,0,1.86-.15,1.86-1C320.68,407.58,320.67,407.54,318.88,407.54Z"/><line class="cls-2" x1="519.98" y1="97.33" x2="439.98" y2="97.33"/><line class="cls-2" x1="519.98" y1="32.33" x2="439.98" y2="32.33"/><line class="cls-2" x1="519.98" y1="162.33" x2="439.98" y2="162.33"/><line class="cls-2" x1="519.98" y1="292.33" x2="439.98" y2="292.33"/><line class="cls-2" x1="519.98" y1="357.32" x2="439.98" y2="357.32"/><line class="cls-2" x1="519.98" y1="422.32" x2="439.98" y2="422.32"/><line class="cls-2" x1="440.62" y1="32.33" x2="440.62" y2="422.32"/><rect class="cls-4" x="519.98" y="139.83" width="194.99" height="45" rx="6"/><rect class="cls-9" x="519.98" y="139.83" width="194.99" height="45" rx="6"/><path class="cls-10" d="M552.67,162.44c-.54,1.09-1.6,3.21-3.31,3.21a1.17,1.17,0,0,1-1.25-1.2c0-1.47,2-2.46,4.08-2.69l.17-.31c.57-1.2,1.54-3,2-4a.43.43,0,0,0,0-.15s0-.06-.08-.06a.18.18,0,0,0-.09,0,11.89,11.89,0,0,1-2.35.39c-.32,0-.45-.18-.45-.38a.41.41,0,0,1,.4-.4,19.23,19.23,0,0,0,2.52-.38,1.35,1.35,0,0,1,.33,0c.42,0,.66.22.66.57a1.2,1.2,0,0,1-.18.57c-.73,1.26-1.48,2.8-2.11,4.11a10.42,10.42,0,0,1,4.21.81,4,4,0,0,0,.14-1,2.38,2.38,0,0,0-.32-1.24.31.31,0,0,1,0-.15.4.4,0,0,1,.42-.35c.49,0,.75,1,.75,1.73a5,5,0,0,1-.21,1.33,11.79,11.79,0,0,1,2.37,1.46.6.6,0,0,1,.24.43.46.46,0,0,1-.44.47.52.52,0,0,1-.34-.15,10,10,0,0,0-2.12-1.46,6.61,6.61,0,0,1-3.34,3.44.33.33,0,0,1-.36-.33.48.48,0,0,1,.28-.42,6.82,6.82,0,0,0,2.7-3,10.49,10.49,0,0,0-3.84-.82Zm-3.78,1.92a.54.54,0,0,0,.59.51c1.12,0,2-1.76,2.35-2.37C550.27,162.74,548.89,163.52,548.89,164.36Z"/><path class="cls-10" d="M569.38,167.61a.45.45,0,0,1-.49-.42c0-.19.13-.39.46-.45a7.72,7.72,0,0,0,2.16-.7c1.49-.87,2.13-1.86,2.13-2.64s-.78-1.25-1.62-1.25a7.6,7.6,0,0,0-4.21,1.86,1.21,1.21,0,0,1-.75.38c-.42,0-.69-.36-.69-1.49a15.62,15.62,0,0,1,.13-1.77c.12-1,.32-1.95.42-2.61a.42.42,0,0,1,.42-.36.34.34,0,0,1,.36.35v.07c-.09.65-.27,1.53-.39,2.27a12.75,12.75,0,0,0-.18,1.72c0,.24,0,.68.18.68a.79.79,0,0,0,.33-.17,9,9,0,0,1,4.43-1.66c1.53,0,2.44.84,2.44,2s-.75,2.27-2.44,3.3A7.74,7.74,0,0,1,569.38,167.61Zm.11-9.69a.51.51,0,0,1-.17,0,.38.38,0,0,1-.39-.37.26.26,0,0,1,.18-.27c.39-.15.57-.26.57-.38s-.15-.21-.43-.39c-1.08-.69-1.16-.73-1.16-1a.36.36,0,0,1,.39-.35.61.61,0,0,1,.33.12c.29.21.72.48,1.08.69s1,.6,1,1S570.72,157.56,569.49,157.92Z"/><path class="cls-10" d="M584.94,163a.48.48,0,0,1,.45.45c0,.09-.69,2.29-2.06,2.29-.76,0-2.58-.94-2.85-5.26,0-.66-.06-1-.06-1.32s0-.8.44-.8.43.3.43,1.17c0,4.34,1.58,5.27,2,5.27.18,0,.69-.08,1.24-1.52A.43.43,0,0,1,584.94,163Zm5.56-.35a4.89,4.89,0,0,0-1.84-3.09.35.35,0,0,1-.17-.31.38.38,0,0,1,.39-.38c.66,0,2.54,2.28,2.54,3.59a.54.54,0,0,1-.51.57A.41.41,0,0,1,590.5,162.66Z"/><path class="cls-10" d="M602.59,167.21a23.19,23.19,0,0,0-3.28-5,2,2,0,0,1,.16-3.06,25.22,25.22,0,0,0,3.2-3.5.5.5,0,0,1,.42-.25.49.49,0,0,1,.48.48.52.52,0,0,1-.12.33,42,42,0,0,1-3.36,3.45,1.54,1.54,0,0,0-.6,1,1.65,1.65,0,0,0,.45,1,29.53,29.53,0,0,1,3.54,5,.77.77,0,0,1,.07.28.55.55,0,0,1-.52.53A.46.46,0,0,1,602.59,167.21Z"/><path class="cls-10" d="M611.2,164a.45.45,0,0,1-.45-.42.46.46,0,0,1,.15-.33,9.61,9.61,0,0,0,2.52-4,.36.36,0,0,1,.36-.25.45.45,0,0,1,.48.42,11.51,11.51,0,0,1-2.68,4.42A.54.54,0,0,1,611.2,164Zm5.63-8.15a.43.43,0,1,1,.85,0v8.07l0,1.68v0c0,.92-.55,1.88-2.34,1.88a7.33,7.33,0,0,1-1.42-.17.44.44,0,0,1-.39-.42.43.43,0,0,1,.4-.45.22.22,0,0,1,.11,0,7.18,7.18,0,0,0,1.36.18c.84,0,1.4-.32,1.4-1.17Zm5.82,7.29a14.4,14.4,0,0,0-2.81-3.6.3.3,0,0,1-.12-.25.38.38,0,0,1,.41-.36c.66,0,3.42,3.43,3.42,4a.5.5,0,0,1-.48.49A.48.48,0,0,1,622.65,163.14Z"/><path class="cls-10" d="M633,161.1h-1.9a.75.75,0,0,0-.84.84c0,.44,0,1.53,0,2.54,0,.72,0,1.39,0,1.77h0a.35.35,0,0,1-.37.36.38.38,0,0,1-.41-.39c0-.36,0-1,0-1.75,0-1,0-2.18,0-2.72v-.07c-.87,1-2,2.08-2.39,2.08a.4.4,0,0,1-.4-.39.41.41,0,0,1,.21-.34,13.53,13.53,0,0,0,4.21-5.18l-3.94,0a.36.36,0,0,1-.38-.38.35.35,0,0,1,.38-.36l4.26,0a16.83,16.83,0,0,0,.76-2.07.39.39,0,0,1,.38-.3.46.46,0,0,1,.48.39,14.09,14.09,0,0,1-.77,2l6.24,0a.35.35,0,0,1,.38.36.36.36,0,0,1-.38.38l-6.57,0a18.92,18.92,0,0,1-1.56,2.64,2.67,2.67,0,0,1,.6-.07h2v-1.26a.36.36,0,0,1,.39-.36.36.36,0,0,1,.39.36v1.24c.81,0,1.62,0,2.34,0a1.27,1.27,0,0,1,1.42,1.36v2.15c0,.36,0,.67,0,.9a1.44,1.44,0,0,1-1.65,1.59c-1.25,0-1.26-.29-1.26-.5s.1-.37.28-.37h.06a5.39,5.39,0,0,0,.87.1c.62,0,.9-.24.9-.84v0c0-.12,0-2.37,0-2.88s-.15-.81-.72-.81h-2.25v6.23a.38.38,0,0,1-.4.4.39.39,0,0,1-.41-.4Z"/><path class="cls-10" d="M645,157.94h-.08c0,.61,0,1.26-.09,1.92.39,0,.78,0,1.08,0A1,1,0,0,1,647,161V161c-.1,3.31-.24,6.22-2.38,6.22-.27,0-1.19,0-1.19-.55a.36.36,0,0,1,.33-.38.49.49,0,0,1,.18.05,1.81,1.81,0,0,0,.68.16c.78,0,1.62-.57,1.66-5.32,0-.47-.16-.69-.67-.71h-.89c-.25,2.6-.85,5.3-2.23,6.89a.45.45,0,0,1-.35.16.39.39,0,0,1-.42-.34.37.37,0,0,1,.09-.23c1.88-2.31,2.27-6.06,2.31-9h-1.56a.35.35,0,0,1-.36-.36.34.34,0,0,1,.36-.34h2v-2a.4.4,0,0,1,.79,0v2h1.87a.33.33,0,0,1,.35.34.34.34,0,0,1-.35.36Zm4.21-.26a9.87,9.87,0,0,1-1.14,1.7.55.55,0,0,1-.39.19.35.35,0,0,1-.37-.34.47.47,0,0,1,.15-.33,10,10,0,0,0,2-3.77.38.38,0,0,1,.37-.28.42.42,0,0,1,.44.39,6.34,6.34,0,0,1-.74,1.75l4.94,0a.33.33,0,0,1,.33.35.35.35,0,0,1-.35.37Zm1.91,3.6-1.55.8c0,1.38,0,2.73,0,3.69s.69,1,2,1c2.41,0,2.89-.21,2.89-1.8a.36.36,0,0,1,.38-.39c.15,0,.43.07.43.49,0,2.34-1.63,2.4-3.63,2.4-1.48,0-2.74,0-2.74-1.57v-3.44c-1,.53-1,.53-1.1.53a.36.36,0,0,1-.33-.36c0-.21.06-.23,1.43-.92v-1.93a.35.35,0,0,1,.37-.36.35.35,0,0,1,.38.33l0,1.6,1.55-.78v-1.72a.37.37,0,0,1,.73,0v1.35c.93-.47,1.19-.6,1.5-.6.9,0,.95.91.95,1.72,0,2.6-.3,3.3-1.46,3.3-.48,0-.78-.06-.78-.42,0-.19.11-.39.29-.39l.07,0a3.18,3.18,0,0,0,.48.09c.36,0,.66-.26.66-2.4,0-1.13-.12-1.22-.34-1.22s-.12,0-1.37.62v4.27a.37.37,0,0,1-.73,0Z"/><path class="cls-10" d="M660.18,156.65c-.62.88-1.44,1.87-1.8,1.87a.39.39,0,0,1-.41-.34.36.36,0,0,1,.14-.26,8.74,8.74,0,0,0,2.29-3.15.32.32,0,0,1,.3-.19.43.43,0,0,1,.44.39,5.23,5.23,0,0,1-.54,1.05l3.24,0a.3.3,0,0,1,.31.33.31.31,0,0,1-.31.33Zm4.39,7,0,3.87a.37.37,0,0,1-.41.34.36.36,0,0,1-.4-.33h0l.07-3.41a16.38,16.38,0,0,1-5.32,3.21.4.4,0,0,1-.42-.39.39.39,0,0,1,.31-.37,14.84,14.84,0,0,0,5-2.91h-3.39c-.77,0-1-.36-1-.77a1.09,1.09,0,0,1,0-.18c.24-1.35.56-1.74,1.49-1.74h3.28v-1.58l-4.14,0a.29.29,0,0,1-.3-.3.31.31,0,0,1,.33-.33c1.14,0,2.66,0,4.17,0s3,0,4.13,0,1.29.6,1.29,1.41c0,1.21-.26,1.38-1.83,1.38l-2.87,0v1.52h4c1,0,1.43.37,1.43,1.05,0,2.44-1.68,2.53-2.16,2.53a4.58,4.58,0,0,1-1.29-.21.35.35,0,0,1-.27-.36.35.35,0,0,1,.34-.36.27.27,0,0,1,.12,0,3.84,3.84,0,0,0,1.1.22c1.18,0,1.36-1.09,1.36-1.75,0-.36-.24-.54-.81-.54Zm-.78-2.12h-3.06c-.45,0-.61.14-.73.45a4.7,4.7,0,0,0-.18.75c0,.2.15.32.58.32h3.38Zm-1.56-3.15a3,3,0,0,0-1.12-.88.21.21,0,0,1-.15-.2.4.4,0,0,1,.4-.33c.26,0,1.44.69,1.44,1.11a.4.4,0,0,1-.37.39A.25.25,0,0,1,662.23,158.4Zm3.38-1.75c-.27.34-1.19,1.47-1.61,1.47a.36.36,0,0,1-.37-.33.34.34,0,0,1,.15-.27,7.3,7.3,0,0,0,2.13-2.73.29.29,0,0,1,.28-.17.44.44,0,0,1,.44.38c0,.07,0,.18-.57,1l4.24,0a.31.31,0,0,1,.32.33.32.32,0,0,1-.32.33Zm2.14,4.33c.68,0,.75-.16.75-.81s-.13-.76-.75-.76c-.78,0-1.93,0-3.19,0V161Zm-.12-2.58a3,3,0,0,0-1.12-.88.21.21,0,0,1-.15-.2.4.4,0,0,1,.4-.33c.26,0,1.44.69,1.44,1.11a.4.4,0,0,1-.37.39A.25.25,0,0,1,667.63,158.4Z"/><path class="cls-10" d="M682.83,166.77h-5.66c-.58,0-.9-.28-.9-.66a1.16,1.16,0,0,1,.38-.76c1.21-1.31,3.18-2.93,4.66-4.56a3.3,3.3,0,0,0,1-2.19,2,2,0,0,0-2.24-1.92,2.46,2.46,0,0,0-2.4,1.51.52.52,0,0,1-.48.38.47.47,0,0,1-.48-.47,3.24,3.24,0,0,1,3.42-2.28c2.27,0,3.18,1.43,3.18,2.7a4.2,4.2,0,0,1-1.18,2.7c-1.29,1.5-3.2,2.91-4.71,4.5a.13.13,0,0,0,0,.08c0,.06.06.1.19.1,1.64,0,3.95-.07,5.22-.07.41,0,.6.22.6.46a.52.52,0,0,1-.57.48Z"/></g></g></svg>