<svg id="レイヤー_1" data-name="レイヤー 1" xmlns="http://www.w3.org/2000/svg" xmlns:xlink="http://www.w3.org/1999/xlink" viewBox="0 0 16 16"><defs><style>.cls-1{fill:#595959;}</style><symbol id="New_Symbol_104" data-name="New Symbol 104" viewBox="0 0 11 16"><path class="cls-1" d="M9,0H2A2,2,0,0,0,0,2V14a2,2,0,0,0,2,2H9a2,2,0,0,0,2-2V2A2,2,0,0,0,9,0ZM4,1H7A.5.5,0,0,1,7,2H4A.5.5,0,0,1,4,1ZM5.5,15.28a.78.78,0,1,1,.78-.78A.78.78,0,0,1,5.5,15.28ZM9,13H2V3H9Z"/></symbol></defs><title>br-show-sp</title><use width="11" height="16" transform="translate(2.5)" xlink:href="#New_Symbol_104"/><use id="New_Symbol_104-5" data-name="New Symbol 104" width="11" height="16" transform="translate(2.5)" xlink:href="#New_Symbol_104"/></svg>