<svg id="レイヤー_1" data-name="レイヤー 1" xmlns="http://www.w3.org/2000/svg" xmlns:xlink="http://www.w3.org/1999/xlink" viewBox="0 0 16 16"><defs><style>.cls-1{fill:#e17d88;}.cls-2{fill:#565656;}</style><symbol id="New_Symbol_152" data-name="New Symbol 152" viewBox="0 0 16 13"><circle class="cls-1" cx="1.5" cy="1.5" r="1.5"/><path class="cls-2" d="M16,2a1,1,0,0,1-1,1H6A1,1,0,0,1,5,2H5A1,1,0,0,1,6,1h9a1,1,0,0,1,1,1Z"/><circle class="cls-1" cx="1.5" cy="6.5" r="1.5"/><path class="cls-2" d="M16,7a1,1,0,0,1-1,1H6A1,1,0,0,1,5,7H5A1,1,0,0,1,6,6h9a1,1,0,0,1,1,1Z"/><circle class="cls-1" cx="1.5" cy="11.5" r="1.5"/><path class="cls-2" d="M16,12a1,1,0,0,1-1,1H6a1,1,0,0,1-1-1H5a1,1,0,0,1,1-1h9a1,1,0,0,1,1,1Z"/></symbol></defs><title>pink-title</title><use id="New_Symbol_152-3" data-name="New Symbol 152" width="16" height="13" transform="translate(0 1.5)" xlink:href="#New_Symbol_152"/></svg>